<?xml version="1.0" encoding="utf-8"?>
<!-- Generator: Adobe Illustrator 28.0.0, SVG Export Plug-In . SVG Version: 6.00 Build 0)  -->
<svg version="1.1" id="Calque_1" xmlns="http://www.w3.org/2000/svg" xmlns:xlink="http://www.w3.org/1999/xlink" x="0px" y="0px"
	 viewBox="0 0 1000 1000" style="enable-background:new 0 0 1000 1000;" xml:space="preserve">
<style type="text/css">
	.st0{fill:none;stroke:#D6D6D6;stroke-width:0.25;stroke-miterlimit:10;}
	.st1{opacity:0.48;}
	.st2{opacity:0.8;}
	.st3{fill:#D2D2D2;}
</style>
<g>
	<path class="st0" d="M485.5,256.5"/>
</g>
<g class="st1">
	<g>
		<g>
			<g class="st2">
				<path class="st3" d="M72,1005c-0.2-28.5-0.3-125.3-0.2-167.5c0-16.2,0.1-28.6,0.1-37.9c0-7.8,0,10.3-0.1,37.9
					c0,12.4,0,26.9,0,44.1c0.1-21.4,0.2-41.9,0.3-56.6c0-10.8,0-21.7,0-32.8c0.1-48.8,0.2-96.1,0.2-144.4c0-17.5,0.1-55.8,0.2-72.8
					l-0.2,212.9c0-1.9,0-3.8,0-5.7l0.3-111.9c0-6.3,0-12.7,0.1-19.3l-0.1,19.3c0,16.6,0,32.7,0,50.8c0,11.1-0.1,23.9-0.1,35.1
					c-0.1,9.1-0.1,17.5-0.1,26.1l0,16.7c0,1.6,0,3.4,0,5.2c0-0.1,0-0.2,0-0.2c0.2-13.8,1-154.5,0.9-177.9
					c-0.1-18.6-0.2-35.6-0.3-56.3c0-6.9,0.1-12.8,0-18.1c-0.1-0.5-0.1-3.2-0.1-5.8c0-13.8,0.2-27.6,0-38.2
					c-0.1-7.4,0.7-28.2,0.6-29.8c-0.5-5.8-0.1-1.6-0.1-19.1c0-2.1-0.2-9-0.2-13.3c0.1-14.3-0.1-18.6-0.1-35
					c-0.2-24.4,0.1-29.8-0.2-51.5c0-2.6-0.3-36.6-0.3-36.6c0-26.6-0.2-43,0.1-63.7c-0.3-23.9,0-55.7-0.1-81.2
					c-0.1-25.5,0.1-36.1,0.1-58.4c0-6.4,0-11.1,0-14.9c0-3.7-0.1-12.7-0.1-19.1l0.1,1.6c0-2.1,0-6.4,0-8.5c0-2.1,0-1.6,0-1.1
					c0,1.1,0.1,2.1,0.1-1.6c0-8.9-0.1-18-0.1-27.2c-0.1-9.2-0.2-18.2-0.2-27.2c0-0.6,0-1.2,0-2.4c0-2.7,0-5.3-0.1-8
					c0-1.3,0-1.2,0-2.1c0-1.3,0-6,0-8.5c0,1.1-0.1,16.4-0.1,23.4c0,1.6,0-2.1,0-3.7c0,9-0.1,9.6-0.1,5.8c0,2.1,0,4.2,0,4.2
					c0-0.5,0-2.1,0-2.1c-0.2,22.8-0.5,48.3-0.5,70.6c0,4.8,0,12.7,0,18c0,2.7-0.1,8.5-0.1,10.6c0.1,3.7,0.1,3.2,0.2,4.8
					c-0.1,16.5-0.4,52-0.1,51c-0.1,13.3,0.1,15.9,0.1,29.7c0,18.3,0,41.5,0,64.3c0,12.5,0,24.5,0,36.7c0,4.5,0,8.9,0,13.1
					c0,90.8-0.4,157.8,0,246.4c0.4,89.3,0.3,183.1,0.3,260.1c0,77,0.2,137.2,0.3,159.1L72,1005z"/>
			</g>
		</g>
	</g>
</g>
<g class="st1">
	<g>
		<g>
			<g class="st2">
				<path class="st3" d="M215.9,1002.1c-0.2-28.4-0.3-125-0.2-167c0-16.2,0.1-28.5,0.1-37.8c0-7.8,0,10.3-0.1,37.8
					c0,12.3,0,26.9,0,44c0.1-21.3,0.2-41.8,0.3-56.4c0-10.8,0-21.7,0-32.7c0.1-48.7,0.1-95.8,0.2-144c0-17.5,0.1-55.6,0.2-72.5
					l-0.2,212.3c0-1.9,0-3.8,0-5.7l0.3-111.6c0-6.3,0-12.7,0.1-19.3l-0.1,19.3c0,16.5,0,32.6,0,50.6c0,11.1-0.1,23.8-0.1,35
					c-0.1,9.1-0.1,17.4-0.1,26.1l0,16.7c0,1.6,0,3.4,0,5.1c0-0.1,0-0.2,0-0.2c0.2-13.8,1-154.1,0.9-177.4
					c-0.1-18.5-0.2-35.5-0.4-56.1c0-6.9,0.1-12.7,0-18c-0.1-0.5-0.1-3.2-0.1-5.8c0-13.7,0.2-27.5,0-38.1c-0.1-7.4,0.7-28.1,0.6-29.7
					c-0.5-5.8-0.1-1.6-0.1-19.1c0-2.1-0.2-9-0.2-13.2c0.1-14.3-0.1-18.5-0.1-34.9c-0.2-24.3,0.1-29.7-0.2-51.4
					c0-2.6-0.3-36.5-0.3-36.5c0-26.5-0.2-42.9,0.1-63.5c-0.3-23.8,0-55.6-0.1-81c-0.1-25.4,0.1-36,0.1-58.3c0-6.4,0-11.1,0-14.8
					c0-3.7-0.1-12.7-0.1-19l0.1,1.6c0-2.1,0-6.4,0-8.5c0-2.1,0-1.6,0-1.1c0,1.1,0.1,2.1,0.1-1.6c0-8.8-0.1-17.9-0.1-27.2
					c-0.1-9.1-0.2-18.2-0.2-27.1c0-0.6,0-1.2,0-2.4c0-2.7,0-5.3-0.1-7.9c0-1.3,0-1.2,0-2.1c0-1.3,0-6,0-8.4c0,1.1-0.1,16.4-0.1,23.3
					c0,1.6,0-2.1,0-3.7c0,9-0.1,9.5-0.1,5.8c0,2.1,0,4.2,0,4.2c0-0.5,0-2.1,0-2.1c-0.2,22.8-0.5,48.2-0.5,70.4c0,4.8,0,12.7,0,18
					c0,2.6-0.1,8.5-0.1,10.6c0.1,3.7,0.1,3.2,0.2,4.7c-0.1,16.4-0.4,51.9-0.1,50.8c-0.1,13.2,0.1,15.9,0.1,29.6
					c0,18.2,0,41.4,0,64.2c0,12.5,0,24.5,0,36.6c0,4.5,0,8.9,0,13.1c0,90.5-0.4,157.3,0,245.6c0.4,89,0.3,182.6,0.3,259.3
					c0,76.8,0.2,136.8,0.3,158.7L215.9,1002.1z"/>
			</g>
		</g>
	</g>
</g>
<g class="st1">
	<g>
		<g>
			<g class="st2">
				<path class="st3" d="M360,1000c-0.2-28.4-0.3-124.7-0.2-166.7c0-16.2,0-28.5,0.1-37.7c0-7.8,0,10.2-0.1,37.7
					c0,12.3,0,26.8,0,43.9c0.1-21.3,0.2-41.7,0.3-56.3c0-10.8,0-21.6,0-32.7c0.1-48.6,0.1-95.6,0.2-143.7c0-17.4,0.1-55.5,0.2-72.4
					L360.2,784c0-1.9,0-3.8,0-5.7l0.3-111.4c0-6.3,0-12.7,0-19.2l0,19.2c0,16.5,0,32.5,0,50.5c0,11.1-0.1,23.8-0.1,34.9
					c0,9.1-0.1,17.4-0.1,26l0,16.6c0,1.6,0,3.3,0,5.1c0-0.1,0-0.2,0-0.2c0.2-13.8,1-153.8,0.9-177c-0.1-18.5-0.2-35.4-0.4-56
					c0-6.9,0.1-12.7,0-18c0-0.5-0.1-3.2-0.1-5.8c0-13.7,0.2-27.5,0-38c-0.1-7.4,0.7-28,0.6-29.6c-0.5-5.8-0.1-1.6-0.1-19
					c0-2.1-0.2-9-0.2-13.2c0.1-14.3-0.1-18.5-0.1-34.9c-0.2-24.3,0.1-29.6-0.2-51.3c0-2.6-0.3-36.4-0.3-36.4
					c0-26.4-0.2-42.8,0.1-63.4c-0.3-23.8,0-55.5-0.1-80.8c-0.1-25.4,0.1-35.9,0.1-58.1c0-6.3,0-11.1,0-14.8c0-3.7-0.1-12.7-0.1-19
					l0.1,1.6c0-2.1,0-6.3,0-8.5c0-2.1,0-1.6,0-1.1c0,1.1,0.1,2.1,0.1-1.6c0-8.8-0.1-17.9-0.1-27.1c-0.1-9.1-0.2-18.1-0.2-27
					c0-0.5,0-1.2,0-2.4c0-2.7,0-5.3-0.1-7.9c0-1.3,0-1.2,0-2.1c0-1.3,0-6,0-8.4c0,1.1,0,16.4-0.1,23.2c0,1.6,0-2.1,0-3.7
					c0,9-0.1,9.5-0.1,5.8c0,2.1,0,4.2,0,4.2c0-0.5,0-2.1,0-2.1c-0.2,22.7-0.5,48.1-0.5,70.3c0,4.8,0,12.7,0,18
					c0,2.6-0.1,8.4-0.1,10.6c0,3.7,0.1,3.2,0.2,4.7c-0.1,16.4-0.4,51.8-0.1,50.7c0,13.2,0.1,15.8,0.1,29.6c0,18.2,0,41.3,0,64
					c0,12.4,0,24.4,0,36.5c0,4.5,0,8.9,0,13c0,90.3-0.5,157,0,245.1c0.4,88.8,0.3,182.2,0.3,258.8c0,76.6,0.2,136.5,0.3,158.4
					L360,1000z"/>
			</g>
		</g>
	</g>
</g>
<g>
	<path class="st0" d="M916,256.3"/>
</g>
<g class="st1">
	<g>
		<g>
			<g class="st2">
				<path class="st3" d="M503.9,1004.8c-0.2-28.5-0.3-125.3-0.2-167.4c0-16.2,0-28.6,0.1-37.9c0-7.8,0,10.3-0.1,37.9
					c0,12.3,0,26.9,0,44.1c0.1-21.4,0.2-41.9,0.3-56.6c0-10.8,0-21.7,0-32.8c0.1-48.8,0.1-96.1,0.2-144.4c0-17.5,0.1-55.7,0.2-72.7
					l-0.2,212.9c0-1.9,0-3.8,0-5.7l0.3-111.9c0-6.3,0-12.7,0-19.3l0,19.3c0,16.6,0,32.7,0,50.7c0,11.1-0.1,23.9-0.1,35
					c0,9.1-0.1,17.5-0.1,26.1l0,16.7c0,1.6,0,3.4,0,5.2c0-0.1,0-0.2,0-0.2c0.2-13.8,1-154.5,0.9-177.8c-0.1-18.6-0.2-35.6-0.4-56.3
					c0-6.9,0.1-12.8,0-18.1c0-0.5-0.1-3.2-0.1-5.8c0-13.8,0.2-27.6,0-38.2c-0.1-7.4,0.7-28.2,0.6-29.8c-0.5-5.8-0.1-1.6-0.1-19.1
					c0-2.1-0.2-9-0.2-13.3c0.1-14.3-0.1-18.6-0.1-35c-0.2-24.4,0.1-29.8-0.2-51.5c0-2.6-0.3-36.6-0.3-36.6c0-26.5-0.2-43,0.1-63.7
					c-0.3-23.9,0-55.7-0.1-81.2c-0.1-25.5,0.1-36.1,0.1-58.4c0-6.4,0-11.1,0-14.9c0-3.7-0.1-12.7-0.1-19.1l0.1,1.6
					c0-2.1,0-6.4,0-8.5c0-2.1,0-1.6,0-1.1c0,1.1,0.1,2.1,0.1-1.6c0-8.9-0.1-18-0.1-27.2c-0.1-9.2-0.2-18.2-0.2-27.2
					c0-0.6,0-1.2,0-2.4c0-2.7,0-5.3-0.1-8c0-1.3,0-1.2,0-2.1c0-1.3,0-6,0-8.5c0,1.1,0,16.4-0.1,23.4c0,1.6,0-2.1,0-3.7
					c0,9-0.1,9.6-0.1,5.8c0,2.1,0,4.2,0,4.2c0-0.5,0-2.1,0-2.1c-0.2,22.8-0.5,48.3-0.5,70.6c0,4.8,0,12.7,0,18
					c0,2.7-0.1,8.5-0.1,10.6c0,3.7,0.1,3.2,0.2,4.8c-0.1,16.5-0.4,52-0.1,51c0,13.3,0.1,15.9,0.1,29.7c0,18.3,0,41.5,0,64.3
					c0,12.5,0,24.5,0,36.7c0,4.5,0,8.9,0,13.1c0,90.8-0.5,157.7,0,246.3c0.4,89.3,0.3,183.1,0.3,260c0,77,0.2,137.1,0.3,159.1
					L503.9,1004.8z"/>
			</g>
		</g>
	</g>
</g>
<g class="st1">
	<g>
		<g>
			<g class="st2">
				<path class="st3" d="M648,1001.8c-0.2-28.4-0.3-124.9-0.2-167c0-16.2,0-28.5,0.1-37.8c0-7.8,0,10.2-0.1,37.8
					c0,12.3,0,26.8,0,43.9c0.1-21.3,0.2-41.8,0.3-56.4c0-10.8,0-21.6,0-32.7c0.1-48.7,0.2-95.8,0.2-144c0-17.5,0.1-55.6,0.2-72.5
					l-0.2,212.2c0-1.9,0-3.8,0-5.7l0.3-111.6c0-6.3,0-12.7,0-19.3l0,19.3c0,16.5,0,32.6,0,50.6c0,11.1-0.1,23.8-0.1,34.9
					c0,9.1-0.1,17.4-0.2,26.1l0,16.7c0,1.6,0,3.4,0,5.1c0-0.1,0-0.2,0-0.2c0.2-13.8,1-154,0.9-177.3c-0.1-18.5-0.2-35.5-0.3-56.1
					c0-6.9,0.1-12.7,0-18c0-0.5-0.1-3.2-0.1-5.8c0-13.7,0.2-27.5,0-38.1c-0.1-7.4,0.7-28.1,0.6-29.7c-0.5-5.8-0.1-1.6-0.1-19.1
					c0-2.1-0.2-9-0.2-13.2c0.1-14.3-0.1-18.5-0.1-34.9c-0.2-24.3,0.1-29.7-0.2-51.3c0-2.6-0.3-36.5-0.3-36.5
					c0-26.5-0.2-42.9,0.1-63.5c-0.3-23.8,0-55.6-0.1-81c-0.1-25.4,0.1-36,0.1-58.2c0-6.4,0-11.1,0-14.8c0-3.7-0.1-12.7-0.1-19
					l0.1,1.6c0-2.1,0-6.4,0-8.5c0-2.1,0-1.6,0-1.1c0,1.1,0.1,2.1,0.1-1.6c0-8.8-0.1-17.9-0.1-27.2c-0.1-9.1-0.2-18.2-0.2-27.1
					c0-0.6,0-1.2,0-2.4c0-2.7,0-5.3-0.1-7.9c0-1.3,0-1.2,0-2.1c0-1.3,0-6,0-8.4c0,1.1,0,16.4-0.1,23.3c0,1.6,0-2.1,0-3.7
					c0,9-0.1,9.5-0.1,5.8c0,2.1,0,4.2,0,4.2c0-0.5,0-2.1,0-2.1c-0.2,22.8-0.5,48.2-0.5,70.4c0,4.8,0,12.7,0,18
					c0,2.6-0.1,8.5-0.1,10.6c0,3.7,0.1,3.2,0.2,4.7c-0.1,16.4-0.4,51.9-0.1,50.8c0,13.2,0.1,15.9,0.1,29.6c0,18.2,0,41.4,0,64.1
					c0,12.5,0,24.5,0,36.6c0,4.5,0,8.9,0,13.1c0,90.5-0.5,157.3,0,245.6c0.4,89,0.3,182.5,0.3,259.3c0,76.7,0.2,136.7,0.3,158.6
					L648,1001.8z"/>
			</g>
		</g>
	</g>
</g>
<g class="st1">
	<g>
		<g>
			<g class="st2">
				<path class="st3" d="M792,999.8c-0.2-28.4-0.3-124.7-0.2-166.7c0-16.2,0-28.5,0.1-37.7c0-7.8,0,10.2-0.1,37.7
					c0,12.3,0,26.8,0,43.9c0.1-21.3,0.2-41.7,0.3-56.3c0-10.8,0-21.6,0-32.7c0.1-48.6,0.2-95.6,0.2-143.7c0-17.4,0.1-55.5,0.2-72.4
					l-0.2,211.9c0-1.9,0-3.8,0-5.7l0.3-111.4c0-6.3,0-12.7,0-19.2l0,19.2c0,16.5,0,32.5,0,50.5c0,11.1-0.1,23.8-0.1,34.9
					c0,9.1-0.1,17.4-0.2,26l0,16.6c0,1.6,0,3.3,0,5.1c0-0.1,0-0.2,0-0.2c0.2-13.8,1-153.8,0.9-177c-0.1-18.5-0.2-35.4-0.3-56
					c0-6.9,0.1-12.7,0-18c0-0.5-0.1-3.2-0.1-5.8c0-13.7,0.2-27.5,0-38c-0.1-7.4,0.7-28,0.6-29.6c-0.5-5.8-0.1-1.6-0.1-19
					c0-2.1-0.2-9-0.2-13.2c0.1-14.3-0.1-18.5-0.1-34.9c-0.2-24.3,0.1-29.6-0.2-51.3c0-2.6-0.3-36.4-0.3-36.4
					c0-26.4-0.2-42.8,0.1-63.4c-0.3-23.8,0-55.5-0.1-80.8c-0.1-25.4,0.1-35.9,0.1-58.1c0-6.3,0-11.1,0-14.8c0-3.7-0.1-12.7-0.1-19
					l0.1,1.6c0-2.1,0-6.3,0-8.5c0-2.1,0-1.6,0-1.1c0,1.1,0.1,2.1,0.1-1.6c0-8.8-0.1-17.9-0.1-27.1c-0.1-9.1-0.2-18.1-0.2-27
					c0-0.5,0-1.2,0-2.4c0-2.6,0-5.3-0.1-7.9c0-1.3,0-1.2,0-2.1c0-1.3,0-6,0-8.4c0,1.1,0,16.4-0.1,23.2c0,1.6,0-2.1,0-3.7
					c0,9-0.1,9.5-0.1,5.8c0,2.1,0,4.2,0,4.2c0-0.5,0-2.1,0-2.1c-0.2,22.7-0.5,48.1-0.5,70.3c0,4.8,0,12.7,0,18
					c0,2.6-0.1,8.4-0.1,10.6c0,3.7,0.1,3.2,0.2,4.7c-0.1,16.4-0.4,51.8-0.1,50.7c0,13.2,0.1,15.8,0.1,29.6c0,18.2,0,41.3,0,64
					c0,12.4,0,24.4,0,36.5c0,4.5,0,8.9,0,13c0,90.3-0.5,157,0,245.1c0.4,88.8,0.3,182.2,0.3,258.8c0,76.6,0.2,136.5,0.3,158.4
					L792,999.8z"/>
			</g>
		</g>
	</g>
</g>
<g class="st1">
	<g>
		<g>
			<g class="st2">
				<path class="st3" d="M927.4,1004.7c-0.2-28.5-0.3-125.3-0.2-167.5c0-16.2,0-28.6,0.1-37.9c0-7.8,0,10.3-0.1,37.9
					c0,12.4,0,26.9,0,44.1c0.1-21.4,0.2-41.9,0.3-56.6c0-10.8,0-21.7,0-32.8c0.1-48.8,0.2-96.1,0.2-144.4c0-17.5,0.1-55.8,0.2-72.8
					l-0.2,212.9c0-1.9,0-3.8,0-5.7L928,670c0-6.3,0-12.7,0-19.3l0,19.3c0,16.6,0,32.7,0,50.8c0,11.1-0.1,23.9-0.1,35.1
					c0,9.1-0.1,17.5-0.1,26.1l0,16.7c0,1.6,0,3.4,0,5.2c0-0.1,0-0.2,0-0.2c0.2-13.8,1-154.5,0.9-177.9c-0.1-18.6-0.2-35.6-0.3-56.3
					c0-6.9,0.1-12.8,0-18.1c0-0.5-0.1-3.2-0.1-5.8c0-13.8,0.2-27.6,0-38.2c-0.1-7.4,0.7-28.2,0.6-29.8c-0.5-5.8-0.1-1.6-0.1-19.1
					c0-2.1-0.2-9-0.2-13.3c0.1-14.3-0.1-18.6-0.1-35c-0.2-24.4,0.1-29.8-0.2-51.5c0-2.6-0.3-36.6-0.3-36.6c0-26.6-0.2-43,0.1-63.7
					c-0.3-23.9,0-55.7-0.1-81.2c-0.1-25.5,0.1-36.1,0.1-58.4c0-6.4,0-11.1,0-14.9c0-3.7-0.1-12.7-0.1-19.1l0.1,1.6
					c0-2.1,0-6.4,0-8.5c0-2.1,0-1.6,0-1.1c0,1.1,0.1,2.1,0.1-1.6c0-8.9-0.1-18-0.1-27.2c-0.1-9.2-0.2-18.2-0.2-27.2
					c0-0.6,0-1.2,0-2.4c0-2.7,0-5.3-0.1-8c0-1.3,0-1.2,0-2.1c0-1.3,0-6,0-8.5c0,1.1,0,16.4-0.1,23.4c0,1.6,0-2.1,0-3.7
					c0,9-0.1,9.6-0.1,5.8c0,2.1,0,4.2,0,4.2c0-0.5,0-2.1,0-2.1c-0.2,22.8-0.5,48.3-0.5,70.6c0,4.8,0,12.7,0,18
					c0,2.7-0.1,8.5-0.1,10.6c0,3.7,0.1,3.2,0.2,4.8c-0.1,16.5-0.4,52-0.1,51c0,13.3,0.1,15.9,0.1,29.7c0,18.3,0,41.5,0,64.3
					c0,12.5,0,24.5,0,36.7c0,4.5,0,8.9,0,13.1c0,90.8-0.5,157.8,0,246.4c0.4,89.3,0.3,183.1,0.3,260.1c0,77,0.2,137.2,0.3,159.1
					L927.4,1004.7z"/>
			</g>
		</g>
	</g>
</g>
</svg>
