<?xml version="1.0" encoding="iso-8859-1" ?>
<!-- Generator: Adobe Illustrator 22.1.0, SVG Export Plug-In . SVG Version: 6.00 Build 0)  -->
<svg
  version="1.1"
  id="Layer_1"
  xmlns="http://www.w3.org/2000/svg"
  xmlns:xlink="http://www.w3.org/1999/xlink"
  x="0px"
  y="0px"
  viewBox="0 0 48 48"
  style="enable-background:new 0 0 50 50;"
  width="50px"
  height="50px"
  xml:space="preserve"
>
<path
    style="fill:none;stroke:#ffffff;stroke-width:3;stroke-miterlimit:10;"
    d="M16.5,41.5h15c5.522,0,10-4.478,10-10v-15
	c0-5.523-4.478-10-10-10h-15c-5.523,0-10,4.477-10,10v15C6.5,37.022,10.977,41.5,16.5,41.5z"
  />
<path
    style="fill:none;stroke:#ffffff;stroke-width:3;stroke-miterlimit:10;"
    d="M24,15.5c-4.694,0-8.5,3.806-8.5,8.5
	s3.806,8.5,8.5,8.5s8.5-3.806,8.5-8.5S28.694,15.5,24,15.5z"
  />
<path
    style="fill:#ffffff;"
    d="M34,12c-1.105,0-2,0.895-2,2s0.895,2,2,2s2-0.895,2-2S35.105,12,34,12z"
  />
</svg>
