<?xml version="1.0" encoding="utf-8"?>
<!-- Generator: Adobe Illustrator 28.0.0, SVG Export Plug-In . SVG Version: 6.00 Build 0)  -->
<svg version="1.1" id="Calque_1" xmlns="http://www.w3.org/2000/svg" xmlns:xlink="http://www.w3.org/1999/xlink" x="0px" y="0px"
	 viewBox="0 0 1000 1000" enable-background="new 0 0 1000 1000" xml:space="preserve">
<g>
	<path fill="none" stroke="#D6D6D6" stroke-miterlimit="10" d="M627.5,251.5"/>
</g>
<g>
	<g>
		<g>
			<g>
				<path fill="#A6A6A6" d="M216.09,1000c0,0.53,0,0.23,0-1.22l-0.01-1.03L216.09,1000z"/>
				<path fill="#A6A6A6" d="M216.09,990.24c-0.01-1.71-0.03-3.67-0.05-2.57c0.02,1.7,0.02,2.08,0.04,3.92c0,1.45,0,2.53,0,2.29
					c0,0.52,0.01,2.23,0.01,3.04c0-1.9-0.01-4.28-0.01-6.78C216.08,989.6,216.08,990.12,216.09,990.24z"/>
				<path fill="#A6A6A6" d="M216.35,848.43l-0.02,0.91C216.34,849.09,216.34,848.78,216.35,848.43z"/>
				<path fill="#A6A6A6" d="M216.59,760.56c0.01,0.67,0.03,0.95,0.05,0.98C216.62,760.92,216.61,760.41,216.59,760.56z"/>
				<path fill="#A6A6A6" d="M216.89,745.56c-0.01,0.32-0.01,0.59-0.02,0.88C216.9,746.11,216.91,745.77,216.89,745.56z"/>
				<path fill="#A6A6A6" d="M216.35,848.43l0.06-2.35C216.35,845.92,216.37,847.28,216.35,848.43z"/>
				<path fill="#A6A6A6" d="M215.97,970.69c0.01,0.49,0.01,0.9,0.02,1.27c0-0.4-0.01-0.79-0.01-1.2
					C215.97,970.74,215.97,970.72,215.97,970.69z"/>
				<path fill="#A6A6A6" d="M216.42,887.16l0,0.71c0.02,0.21,0.04,0.4,0.06,0.59L216.42,887.16z"/>
				<path fill="#A6A6A6" d="M216.37,916.89c0.01-0.67-0.09-0.91-0.14-1.16c0.04,0.38,0.06,0.88,0.07,1.47
					C216.32,917.2,216.34,917.11,216.37,916.89z"/>
				<path fill="#A6A6A6" d="M216.14,964.02l0.01,0.84C216.14,964.64,216.14,964.28,216.14,964.02z"/>
				<path fill="#A6A6A6" d="M216.5,865.89c0.02-0.05,0.04-0.16,0.05-0.27C216.54,865.61,216.52,865.72,216.5,865.89z"/>
				<path fill="#A6A6A6" d="M215.87,34.46C215.88,34.48,215.88,34.45,215.87,34.46C215.88,34.28,215.87,34.23,215.87,34.46z"/>
				<path fill="#A6A6A6" d="M216.09,0l0,0.48c0,0.04,0,0.07,0,0.1L216.09,0z"/>
				<path fill="#A6A6A6" d="M217.24,718.11c0,0.05,0,0.07,0,0.12C217.26,718.95,217.26,718.54,217.24,718.11z"/>
				<path fill="#A6A6A6" d="M217.25,466.06c-0.25,2.86-0.32-4.65-0.6-0.35C216.76,465.32,217.09,469.62,217.25,466.06z"/>
				<path fill="#A6A6A6" d="M215.97,969.92c0-0.4,0-0.81,0-1.22C215.97,969.25,215.97,969.63,215.97,969.92z"/>
				<path fill="#A6A6A6" d="M216.65,465.72L216.65,465.72l-0.03,0.44C216.63,465.98,216.64,465.87,216.65,465.72z"/>
				<path fill="#A6A6A6" d="M217.2,654.85c-0.05,0.13-0.08,0.38-0.11,0.65C217.11,655.47,217.14,655.32,217.2,654.85z"/>
				<path fill="#A6A6A6" d="M216.78,701.97l0.03-1.17C216.79,701.27,216.79,701.64,216.78,701.97z"/>
				<path fill="#A6A6A6" d="M216.85,630.38c0.02-0.63,0.06-0.85,0.02-1.72c-0.01,0.08-0.02,0.16-0.03,0.26
					C216.88,629.24,216.89,629.66,216.85,630.38z"/>
				<path fill="#A6A6A6" d="M216.86,604.91c-0.02,0.14-0.04,0.31-0.05,0.47c0,0.25,0.01,0.55,0.01,0.81L216.86,604.91z"/>
				<path fill="#A6A6A6" d="M215.56,111.86c0.04-0.56,0.08-0.9,0.12-1.18C215.58,111.07,215.57,107.33,215.56,111.86z"/>
				<path fill="#A6A6A6" d="M215.99,970.67c-0.01-0.15-0.02-0.37-0.02-0.76c0,0.29,0,0.57,0.01,0.85
					C215.98,970.84,215.99,970.85,215.99,970.67z"/>
				<path fill="#A6A6A6" d="M214.75,629.34l0.03-4.05C214.76,626.43,214.75,627.9,214.75,629.34z"/>
				<path fill="#A6A6A6" d="M215.11,294.57l-0.03-0.93C215.08,294,215.08,294.33,215.11,294.57z"/>
				<path fill="#A6A6A6" d="M214.74,613.29c0.09-0.72,0.15-1.49,0.18-2.28c-0.02-0.17-0.04-0.36-0.07-0.47L214.74,613.29z"/>
				<path fill="#A6A6A6" d="M215.68,110.67C215.68,110.68,215.68,110.68,215.68,110.67C215.68,110.68,215.68,110.68,215.68,110.67z"
					/>
				<path fill="#A6A6A6" d="M215.52,84.02c-0.02,3.86,0.12,1.81,0.2,2.63c0.02,4.6-0.11,2.13-0.19,3.7
					c0.02,2.87,0.15,5.08,0.13,7.22c-0.03,0.16-0.04,0.58-0.06,0.09c0.11,3.04-0.03,9.02,0.12,12.56c-0.02,0.26-0.03,0.4-0.04,0.46
					c0.08-0.57,0.17-0.66,0.23-0.54c0,1.73,0.1,3.21-0.01,3.86c0-1.06-0.04-1.15-0.07-1.64l0.04,1.81
					c-0.16,1.63-0.05-2.47-0.17-2.47c0.04,3.53,0.17,7.65,0.12,10.35c-0.16,0.57-0.04-6.33-0.19-2.72l0.07-4.19
					c-0.26,3.2,0.03-2.54-0.25,0.4c-0.07,5.51,0.06,6.16-0.01,11.66c0.09,1.24,0.14-0.41,0.23,0.83c0.16,7.81-0.46,6.15-0.24,11.89
					c0.11,1.49,0.35,2.06,0.21,6.15l-0.21-1.39c-0.04,5.34,0.3,3.05,0.14,8.63c-0.08-0.99-0.06-4.19-0.09-3.39
					c-0.18,3.62,0.12,2.56,0.11,5.34l-0.2,0.58c0.05,5.68,0.11,11.94,0.17,18.23c-0.06-0.35-0.13-1.43-0.19,0.05
					c0.08,7.93-0.07,16.94-0.23,24.59l0.19,2.92c0,0.68-0.09,1.26-0.13,0.53c-0.09,2.98,0.13,0.15,0.2,1.59
					c0.01,1.7-0.12,2.24-0.18,1.17c0.16,5.26,0.35,14.99,0.11,20.54l-0.06-1.08c-0.1,4.32,0.44,4.87,0.23,8.88l-0.04-0.77
					c-0.12,9.37,0.08,19.73-0.28,26.88c0.34,1.36-0.17,9.28,0.31,9.88c-0.25,5.35-0.33,3.82-0.51,11.36c-0.03,2.01,0.3,3,0.35,5.49
					l-0.26,0.06l0.27,3.38l-0.32,1.8l0.06,2.33c0.02-0.93,0.12-1.98,0.2-1.83c0.06,1.82,0.01,4.04-0.07,5.82
					c-0.08,1.78-0.19,3.11-0.26,3.16l0.21,8.63c-0.11-0.19-0.14-1.64-0.21-2.78c0.27,4.6-0.29,0.84-0.04,5.06
					c0.06-0.57,0.16,0.31,0.22,0.4c-0.17,2.1-0.18,6.89-0.11,10.43l-0.19-0.68c-0.06,6.4,0.07,13.49,0.06,20.67
					c0.09-2.58,0.43-1.98,0.46,0.12l-0.3,0.84c0.18,1.36,0.11-2.2,0.34,0.59c-0.04,2.68-0.34,1.8-0.44,0.26l0.1,3.26
					c-0.09,0.19-0.14-0.57-0.25-0.77c0.19,1.34-0.31,5.63,0.01,7.56l-0.09,0.18c-0.01,7.18,0.09,10.43,0.1,16.28
					c0.27,0.11,0.2,2.4,0.42,4.14c-0.09,4.3-0.3,9.07-0.29,14.24c0.13,3.64,0.23,1.06,0.39,2.7c-0.25,0.27-0.23,5.44-0.4,2.76
					c0.04,6.21,0.04,7.94,0.24,15.8c0.1-0.85,0.15-1.81,0.23-1.32c0.04,1.43-0.11,3.24-0.23,3.04l-0.03-0.38
					c0.37,8.82-0.74,20.36-0.22,27.38l-0.03-0.39l0.27,7.28c-0.04,3.35-0.19-2.01-0.35,0.47c0.42,7.86-0.07,12.42,0.21,18.89
					c-0.76,5.01,0.05,17.77-0.43,24.54l0.18-0.39c0.17,1.75-0.1,2.11-0.14,3.4c0.14-0.18,0.16-1.9,0.26-0.81
					c0.21,14.8-0.26,30.55-0.41,45.73c-0.04,5.55,0.92,3.15,0.5,10.15l-0.33-1.99c0.4,11.2,0,22.9,0.34,33.87
					c-0.07-0.65-0.17-0.67-0.17-1.74c-0.23,2.32-0.01,8.56,0.19,8.6c-0.02,1.71-0.17,0.4-0.27,1.45c-0.14,2.32,0.3,5.83,0.07,7.07
					c-0.04,0.21-0.08-0.65-0.09-1.08c0.11,1.51-0.02,7.05,0.24,5.6c-0.12,4.12,0.12,7.87-0.03,11.16c0.3,2.14-0.14,7.05,0.28,7.72
					c-0.43-0.29-0.34,7.21-0.14,9.82c-0.13-0.87-0.13,2.26-0.31,1.24c0.01,2.97,0.09,5.69,0.31,5.17c-0.5,5.47,0.42,11-0.22,14.08
					c0.24,8.82,0.39,16.98,0.5,24.92c-0.41-0.29-0.05-8.77-0.48-8.43c0.18,7.53,0.53,11.87,0.44,19.33
					c-0.05,1.93-0.17-1.1-0.24-1.75c0.17,7.52-0.01,14.54,0.21,21.23c-0.04-0.02-0.08-0.74-0.11-1.42c0.01,1.32-0.05,3.07,0.12,2.92
					l-0.05-1.29c0.25-2.11,0.54,5.24,0.67,5.47c-0.5-2.24-0.12,6.61-0.75,3.05c0.03,0.87,0.12,1.96,0.23,1.76
					c-0.03,1.29-0.1,1.7-0.23,0.39c0.1,4.72,0.28,3.05,0.28,7.33c-0.08-0.02-0.12-0.88-0.21-1.32c0.17,2.17,0.33,4.34,0.26,7.96
					c-0.05-0.22-0.11,0.2-0.11-0.88c0.04,6.21,0.43,10.59,0.29,17.4c-0.35-2.01-0.11,2.32-0.4,2.68l0.09,3.66l0.14-1.47
					c0,3.21,0.21,6.05,0.12,8.81l-0.12-2.39l0.06,6.02l0.1-3.4c0.15,3.25,0.36-0.35,0.29,3.92c-0.03-0.87,0,3.21-0.17,4.88l0-0.01
					c0.09,1.59,0.18,3.22,0.12,5.6c-0.09,0.62-0.31-0.5-0.37-0.09c0.23,1.57,0.07,7.52,0.32,9.5c-0.06-0.66-0.2-0.7-0.23-0.48
					l0.18,1.32c-0.06,1.49-0.08,1.7-0.2,1.46c-0.03,4.47,0.34-1.42,0.2,3.89c-0.01-0.42-0.04-0.22-0.07-1.09
					c-0.07,5.33,0.12,10.3,0.04,15.2c-0.25,1.45-0.07-4.28-0.28-2.63c0.06,7.06,0.32,14.63,0.27,21.46l0.02-1.27
					c0.34,0.95-0.16,5.09,0,8.55c-0.03-0.85-0.18-1.11-0.15-0.88c-0.04,4.68,0.1,9.57,0.2,16.66l-0.08-0.88
					c-0.07,2.76-0.03,7.26-0.06,10.25c0.08,0.88,0.07,2.59,0.17,1.55c-0.39,9.19,0.23,17.53-0.08,25.68c0-0.97-0.06-2.32-0.06-1.55
					l0.07,6.94c0.1-0.55,0.06-0.91,0.14-2.37c0.06,0.88,0.11,2.84,0.11,4.56c-0.07-3.12-0.17,0.03-0.22,1.38
					c0.03-0.23,0.07,0.24,0.1,0.12c-0.18,3.63,0.2,0.61,0.09,5.56l-0.05-0.26c0.03,1.85,0.09,3.56,0.08,5.56
					c-0.11,0.83-0.05-1.97-0.14-2.1c0.01,2.81,0.21,5.54,0.1,8.08c-0.02-1.19-0.04-2.91-0.06-4.1c-0.12,2.77-0.09,3.09-0.1,5.14
					l0-0.2l-0.04,4.75l0.03-1.21c0.26,3.51,0.06,7.15,0.22,11.89c-0.15-4.6-0.08-0.76-0.18-1.11c-0.03,1.21-0.05,3.05-0.08,2.52
					c0.08,2.24-0.05,3.73,0.07,6.89c-0.03,0.14,0,2.39-0.07,1.89c0.03,2.91,0.05-0.69,0.08-0.44c0.1,4.48-0.07,10.54,0.06,16.98
					c0.07,5.55,0.08,6.59,0.15,11.75c-0.03,1.74-0.06-1.43-0.06-1.43c-0.02,2.81-0.01,4.92,0.01,7.57
					c-0.01-0.54-0.02,0.02-0.04,0.82c0.01,2.12,0.05,1.42,0.04,4.22c-0.01-0.48-0.03-1.11-0.06-2.12c0.02,2.5,0.04,4.98,0.06,7.57
					c-0.02,0.69-0.03-1.56-0.05-2.48c0.02,2.91,0.06,7.51,0.06,8.45l0-1.87c0,1.06-0.02,0.55-0.02-0.24c-0.03-2.5,0-3.6,0.01-3.74
					l0.01,1.85c0.06-1.9-0.01-7.41-0.02-11.13l0.06,1.55l-0.05-3.81c0.02-0.81,0.05-1.37,0.06,0.47c0.03-2.66-0.02-2.36,0.02-4.65
					c0.01-0.25,0.01-0.14,0.01,0.1l-0.02-2.6c0.02,0.51,0.05-0.43,0.04,1.17c0.06-4.67-0.05-7.53,0.02-9.29l0,0.39
					c-0.02-6.48-0.06-0.63-0.15-5.49l0.19-3.27l-0.08-0.64c0-0.67,0.01-1.99,0.04-1.75c-0.05-2.49-0.03,0.42-0.09-1.02
					c0.08-3.22-0.04-8.87,0.11-9.6c-0.07-1.16-0.06,3.08-0.1-0.36c0.16-0.98-0.03-3.97,0.05-6.91c0.09,0.9,0.04,3.69,0.12,0.75
					c-0.15-1.77,0.04-5.73,0.02-8.21c-0.06-0.06-0.08-1.41-0.08-3.26c0-1.85-0.01-4.21-0.01-6.29c0.05,0.26,0.09-7.83,0.15-11.7
					l0.03,0.11c-0.15-0.75-0.12-4.74-0.15-7.65c0.1,0.11,0.14,0.64,0.18,2.21l0.01-2.73c-0.05-0.64-0.08-1.5-0.1-3.27l0.13,0.69
					c0-3.64-0.14-7.33-0.04-12.01c-0.13-0.26-0.35,3.72-0.44-1.23c0.07-0.18,0.19-0.37,0.22,0.93c-0.01-0.42-0.06-1.51-0.03-2.37
					l0.12,1.98c0.05-2.13-0.1-1.11-0.08-2.82c0.1,0.03,0.07-1.26,0.15-1.02c0.01,0.44-0.04,1.49-0.01,2.14
					c0.02-1.92,0.08-4.25,0.16-5.01c-0.06,0.17-0.14,0-0.15-1.41c0-3.64,0.13-1.25,0.19-3.37c-0.07-0.88,0.01-3.2-0.15-3.26
					c0-1.06,0.08-1.26,0.12-1.67c-0.07-1.88,0-8.8-0.18-6.67l-0.01,0.48c0-0.09,0-0.2-0.01-0.31c0,0.02,0,0,0,0.02l0-0.02
					c-0.16-6.17,0.11-12.82,0.04-18.94l0.06,0.01c-0.07-3.66-0.03-8.14-0.16-10.75c0-1.08,0.12-2.55,0.19-2.09
					c-0.04-2.79-0.12-3.11-0.01-7.14c0.11,2.81,0.1-0.97,0.08,2.88c0.06-3.63,0.17-4.45-0.01-8.35c0.17,1.33,0.22-2.73,0.17-4.46
					l-0.13,2.54c-0.02-1.94,0-3.64,0.01-5.36l0.23,0.93c0.31-7.43-0.46-13.4,0.03-19.06c-0.17-1.97-0.13,4.04-0.32,2.28
					c0.04-3.42,0.39-6.98,0.4-8.05c0.15-4.68-0.35-4.37-0.25-9.27c-0.09,0.63-0.33,1.22-0.41-2.44c0.03-3.42,0.39-4.2,0.46-2.04
					c0.01,0.82-0.02,1.22-0.05,1.18c0.03,1.11,0.07,2.55,0.17,1.2l-0.09-0.44c0.1-1.7,0.09-6.4,0.24-5.3
					c-0.08-2.58-0.15-1.11-0.2,0.81c0.14-4.39,0.01-6.85,0.11-11.37c-0.05,0.72-0.16,1.38-0.16,0.66c0.13-6.62-0.18-2.92-0.21-7.4
					c0.15-2.55,0.35,0.91,0.23-3.6c0.1-2.76,0.26-0.58,0.33,0.51c-0.18-4.12,0.14-7.69,0.18-10.04l0.07,2.17
					c-0.04-1.3-0.04-2.36-0.04-3.44l-0.2,1.24c0.04-1.27,0.04-2.35,0.12-2.33c-0.13-1.31-0.33,1-0.5-1.6c0.1-1.7-0.1-5.17,0.16-5.75
					c-0.1,5.34,0.27-0.59,0.3,3.93c-0.03-0.87-0.03-1.93,0.01-3.21c0.03-0.19,0.05,0.18,0.07,0.53c0.25-5.11-0.3-2.35-0.28-7.64
					c0.15,0.67,0.29-1.23,0.26-2.09c-0.01,2.13-0.25,1.02-0.37-0.94c0.12-3.39-0.08-3.69-0.07-5.47l-0.06,2.03
					c-0.15-0.69-0.13-2.38-0.18-4.75c0.12-0.2,0.08,2.15,0.13,1.3c-0.27-2.63,0.29-5.94,0.11-9.6c0.11-1.7,0.29-0.16,0.37-1.65
					c-0.2-4.1,0.22-4.45,0.06-8.76c-0.21,1.24-0.16,1.46-0.37-1.58l0.14,7.09l-0.3-4.55c0,2.14,0.13,4.52,0.09,5.8
					c-0.17-2.17-0.12-1.95-0.29-0.92c0.32-2.93-0.18-5.81,0.03-9.19l0.53,0.1c0.24-5.09-0.26-9.04-0.12-15.65l-0.1,2.12
					c-0.21-0.89-0.03-4.08-0.11-6.22c0.18,0.2,0.25-1.14,0.36-2.05c-0.14,0.11,0.02-4.84-0.35-5.44l0.24-2.95
					c0.11-5.34-0.52-6.09-0.46-11.22c0.2,1.55,0.33-0.79,0.48,2.65c0-1.71,0.04-3.25-0.09-3.28c0.12-1-0.25-4.75-0.07-6.33
					c-0.08-0.72-0.28-0.96-0.26-2.88c0.04-0.21,0.09,0.01,0.09,0.01c-0.09-0.01-0.12-3.01-0.33-1.33
					c0.59-5.28-0.04-14.75,0.47-19.34c-0.04-3.74-0.1-8.24-0.13-11.64c0.06,0.22,0.1,0.01,0.08,0.65c0.18-4.68-0.55-2.88-0.35-8.21
					c0.31-2.72,0.17,2.83,0.29,1.13c0.63-0.74-0.08-6.43,0.29-10.01l0.04,0.87c0.22-2.74-0.24-6.69-0.19-11.16
					c0,0,0.06,0.22,0.1,0.03c-0.33-3.06-0.43-8.86-0.52-13.17c0.25,1.34,0.13,1.96,0.39,1.14c-0.04-1.93-0.41,0.57-0.48-3.29
					c0.14-1.25,0.26-4.03,0.53-4.4l0.01,3.64c0.35-1.86-0.01-4.71,0.05-6.62l0.15,0.24c-0.05-5.57-0.44-5.65-0.41-11.64l-0.12,0.62
					c-0.39-3.27,0.22-2.74-0.07-6.01l0.39-0.99c-0.09-2.16-0.38-7.56-0.45-11.43c0.29,2.19,0.44,6.72,0.61,9.53
					c0-2.14-0.03-7.27-0.22-8.39c0.04,0.86,0.13,1.95,0.07,2.8c-0.31-2.63-0.46-6.08-0.46-10.35c0.76,0.76,0.19-11.12,0.79-14.21
					c-0.28-7.54,0.12-14.97,0.07-23.76c-0.59,3.12-0.02-2.57-0.63-2.03c-0.04-2.05-0.03-2.83,0.01-3.01l0.36-6.2
					c0.18-1.47,0.13,1.95,0.27,1.76c0.05-4.48,0.26-1.88,0.42-4.85c-0.22,0.61-0.31-1.56-0.23-4.11l-0.28,3.6
					c-0.32-6.26,0.51-5.41,0.19-11.73l0.19,2c-0.11-3.24,0-11.95-0.49-15.13c0.07-0.57,0.23-1.33,0.28,0.1
					c0.07-7.74-0.52-17.24-0.23-23.26l0.15,0.59c-0.04-1.44-0.27-2.51-0.13-4.32c0.06,0.09,0.15,0.58,0.15-0.09
					c-0.05-0.76-0.26-3.84-0.17-5.75l0.16,1.64c0.18-7.55-0.4-11.59-0.5-17.93c0.42,0.02,0.55-5.93,0.61-8.89l0.06,0.1
					c0.04-8.8-0.36-14.94-0.53-23.08c0.43-5.06,0.17-17.13,0.39-25.25c-0.07,1.24-0.31-0.2-0.35-1.65c0.08-1.91-0.28-5.27,0.08-4.97
					l-0.01,0.68c0.35-1.44,0.25-5.36,0.25-8.42l-0.46-0.5c0.66-8-0.27-20.97,0.31-25.34c-0.11-1.93-0.12-4.32-0.23-6.24l0.24,0.1
					c0.05-5.35,0.07-8.02,0-14.64l0.17,1.35c0.01-3.73-0.67-4.71-0.69-8.15l0.33-1.04c-0.02-6.51,0.25-13.1-0.05-19.53
					c0.05,0.11,0.14,0.3,0.16,1.35c0-3.06,0.18-11.85-0.25-10.74c0.28-0.08,0.01-6.72-0.11-10.23l0.2,0.55
					c-0.26-2.97-0.33-3.06-0.41-7.2c0.02-0.98,0.16-0.86,0.11,0.44c0.1-3.27-0.19-2.55-0.09-6.52l0.13,1.48
					c0.01-3.37-0.06-3.1-0.2-4.95c-0.08-2.12,0.04-6.39,0.21-6.88c-0.1-0.45-0.24-2.3-0.2-4.28c0.06-0.27,0.1,0.45,0.12,0.82
					c0.11-5.63-0.22-8.37-0.05-12.24c0.06-0.08,0.09-0.33,0.1-0.65c0.01,4.47,0,8.07-0.01,7.74c0.17,0,0.19-3.61,0.42-0.74
					c-0.14-2.9-0.42-7.86-0.35-11.38c0.02-0.17,0.03-0.34,0.05-0.47l0.02,0.36c0.01-0.81,0-1.54-0.03-2.23
					c0.02-1.12,0.04-1.84,0.04-2.92c0.13-0.42,0.06-4.14,0.06-5.94c-0.17,0.15-0.15-2.21-0.28,0c0.01-0.29,0.02,0.34,0.03,1.54
					c0.01,0.27,0.01,0.59,0.02,0.77c0-0.03-0.01-0.08-0.02-0.12c0.01,1.18,0.01,2.72,0.02,4.48c-0.09-1.42-0.16-2.91-0.07-4.9
					c-0.1-0.93-0.21-1.94-0.27-2.51c0.23-2.46,0.34-7.22,0.48-7.88c-0.1-5.5-0.1-12.96-0.38-16.41c-0.04-1.56,0.08-1.8,0.12-2.38
					c0.03,0.9,0.03,1.98,0.07,2.46c-0.08-3.13-0.05-9.26-0.23-10.01c0.08-3.94,0.17,2.21,0.13-3.2l0.06,0.73
					c0.23-10.65-0.46-17.32-0.15-29.13c-0.02,0.82-0.02,1.23-0.05,1.39c0.09-13.46-0.14-27.75-0.02-41.03
					c0.02-3.78-0.04-4.19-0.09-6.49l0.07-0.82l-0.08-3.94c-0.05-5.59,0.11-9.68,0.01-16.75l-0.03,0.91c0-2.54-0.03-8.05,0-7.62
					c0-0.26-0.02-0.83-0.01-1.83l0.01-0.08l-0.04-6.24c0-4.84,0.04,0.76,0.01-6.3c-0.01-2.52-0.03-5.54-0.03-6.49
					c0,1.05,0,2.61,0,2.79l0-2.4c-0.01-0.44,0.01-2.28-0.03,3.61l-0.01,4.11l-0.02,1.32l0.02-3.46c-0.01,1.97-0.01,3.2-0.02,4.59
					c0,0.35-0.01,0.91-0.02,1.72l0.01,4.03c-0.02,0.49-0.02-1.81-0.04,0.9c0.01,1.89,0.04-1.81,0.04,1.32
					c-0.03,1.96-0.04,1.39-0.03,3.7c-0.01,0.32-0.02-0.16-0.02-1.08c0,2.05-0.02,5.43,0.01,6.49c-0.05,2.05-0.02,6.93-0.09,6.73
					c0,0.65,0.03,3.62,0.04,5.5c-0.08-3.44-0.04,7.06-0.15,6.15c0.09,2.55,0,9.21,0.05,13.72c-0.01-0.25-0.03-0.75-0.02-1.15
					c-0.02,2.54-0.06,3.28-0.1,4.91c0.11,0.33,0.12,4.28,0.19,6.42c-0.13,3.11-0.13-1.89-0.25-0.91c0.1-0.16,0.07,5.41,0.16,4.35
					c-0.08,2.38-0.04,2.05-0.16,3.28c0.16,0.42,0.02,2.22,0.11,4.19c-0.1,3.45-0.16,0.89-0.13,4.67
					C215.57,87.39,215.52,84.02,215.52,84.02z M215.62,174.07L215.62,174.07c-0.01-0.78-0.01-1.44-0.01-1.86
					C215.62,172.6,215.62,173.14,215.62,174.07z M215.61,181.64c0-0.92,0.01-2.07,0.01-3.28c0.06-0.27,0.12,0.02,0.12,0.78
					C215.7,178.73,215.67,180.51,215.61,181.64z M216.81,165.64c0.03,1.2,0,1.6-0.04,1.76c-0.01-0.57-0.02-1.23-0.03-2.09
					c-0.01-0.04-0.02-0.11-0.02-0.14C216.76,165.28,216.79,165.41,216.81,165.64z"/>
				<path fill="#A6A6A6" d="M216.59,163.48c0-0.17-0.01-0.27-0.01-0.49c-0.01,0.25-0.02,0.48-0.04,0.71
					c0.02,0.15,0.04,0.29,0.05,0.42C216.59,163.91,216.59,163.68,216.59,163.48z"/>
				<path fill="#A6A6A6" d="M216.33,849.5l0-0.16c-0.01,0.13-0.02,0.25-0.02,0.34C216.32,849.57,216.32,849.57,216.33,849.5z"/>
				<polygon fill="#A6A6A6" points="215.01,286.14 215.07,286.13 215.02,285.47 				"/>
				<path fill="#A6A6A6" d="M215.85,891.18c-0.01,0.08-0.02,0.24-0.03,0.55C215.83,891.71,215.84,891.47,215.85,891.18z"/>
				<path fill="#A6A6A6" d="M215.86,909.19l-0.03,2.55C215.84,910.63,215.85,909.83,215.86,909.19z"/>
				<path fill="#A6A6A6" d="M215.84,923.03c0.02,0.18,0.03,0.23,0.04,0.27c0-0.01,0-0.02,0-0.03L215.84,923.03z"/>
				<path fill="#A6A6A6" d="M215.16,702.93c0-0.19-0.01-0.37-0.01-0.53C215.1,701.14,215.12,701.99,215.16,702.93z"/>
				<path fill="#A6A6A6" d="M215.77,768.43c-0.03-0.7-0.07-1.38-0.1-2.11C215.65,767.49,215.65,768.39,215.77,768.43z"/>
				<path fill="#A6A6A6" d="M214.75,629.79C214.75,629.79,214.75,629.79,214.75,629.79c0-0.15,0-0.29,0-0.44L214.75,629.79z"/>
				<path fill="#A6A6A6" d="M215.67,763.28c-0.04,1.17-0.03,2.14,0,3.05C215.68,765.37,215.7,764.24,215.67,763.28z"/>
				<path fill="#A6A6A6" d="M216.01,983.03l0,0.67c0-0.01,0,0.03,0,0.08L216.01,983.03z"/>
				<path fill="#A6A6A6" d="M216.02,983.77l0.01,0.74C216.02,984.18,216.02,983.88,216.02,983.77z"/>
				<path fill="#A6A6A6" d="M216.04,986.07l-0.01-1.56C216.03,985.05,216.03,985.71,216.04,986.07z"/>
				<path fill="#A6A6A6" d="M215.96,964.7l-0.02-0.21C215.95,964.61,215.96,964.68,215.96,964.7z"/>
				<path fill="#A6A6A6" d="M215.94,959.13c0,1.33-0.01,3.33-0.01,5.19l0.01,0.17C215.92,963.62,215.98,960.4,215.94,959.13z"/>
				<path fill="#A6A6A6" d="M216.23,935.89l-0.03,4.67c0.03-0.82,0.07-1.89,0.07,0.23C216.38,934.91,216.2,942,216.23,935.89z"/>
				<path fill="#A6A6A6" d="M216.31,921.42c0.01,2.51,0.05-0.03,0.07,0.1C216.35,919.93,216.34,919.55,216.31,921.42z"/>
				<path fill="#A6A6A6" d="M216.51,816.85l0.17,0.25C216.65,815.17,216.61,817.09,216.51,816.85z"/>
				<polygon fill="#A6A6A6" points="215.62,796.87 215.51,798.75 215.67,799.64 				"/>
				<polygon fill="#A6A6A6" points="216.91,785.06 216.94,785.9 216.88,782.68 				"/>
				<path fill="#A6A6A6" d="M217.1,609.44l-0.3,0.58C216.85,611.33,217.19,611.6,217.1,609.44z"/>
				<path fill="#A6A6A6" d="M216.82,533.62c0.16-0.83,0.26-2.96,0.1-4.27C216.9,531.06,216.78,532.76,216.82,533.62z"/>
				<polygon fill="#A6A6A6" points="217.18,306.25 217.27,307.77 217.19,304.9 				"/>
			</g>
		</g>
	</g>
</g>
<g>
	<g>
		<g>
			<g>
				<path fill="#A6A6A6" d="M504.5,1000c0,0.53,0,0.23,0-1.22l-0.01-1.03L504.5,1000z"/>
				<path fill="#A6A6A6" d="M504.5,990.24c-0.01-1.71-0.03-3.67-0.05-2.57c0.02,1.7,0.02,2.08,0.04,3.92c0,1.45,0,2.53,0,2.29
					c0,0.52,0.01,2.23,0.01,3.04c0-1.9-0.01-4.28-0.01-6.78C504.49,989.6,504.49,990.12,504.5,990.24z"/>
				<path fill="#A6A6A6" d="M504.76,848.43l-0.02,0.91C504.75,849.09,504.75,848.78,504.76,848.43z"/>
				<path fill="#A6A6A6" d="M505,760.56c0.01,0.67,0.03,0.95,0.05,0.98C505.03,760.92,505.02,760.41,505,760.56z"/>
				<path fill="#A6A6A6" d="M505.3,745.56c-0.01,0.32-0.01,0.59-0.02,0.88C505.31,746.11,505.32,745.77,505.3,745.56z"/>
				<path fill="#A6A6A6" d="M504.76,848.43l0.06-2.35C504.76,845.92,504.78,847.28,504.76,848.43z"/>
				<path fill="#A6A6A6" d="M504.38,970.69c0.01,0.49,0.01,0.9,0.02,1.27c0-0.4-0.01-0.79-0.01-1.2
					C504.38,970.74,504.38,970.72,504.38,970.69z"/>
				<path fill="#A6A6A6" d="M504.83,887.16l0,0.71c0.02,0.21,0.04,0.4,0.06,0.59L504.83,887.16z"/>
				<path fill="#A6A6A6" d="M504.78,916.89c0.01-0.67-0.09-0.91-0.14-1.16c0.04,0.38,0.06,0.88,0.07,1.47
					C504.73,917.2,504.75,917.11,504.78,916.89z"/>
				<path fill="#A6A6A6" d="M504.55,964.02l0.01,0.84C504.55,964.64,504.55,964.28,504.55,964.02z"/>
				<path fill="#A6A6A6" d="M504.91,865.89c0.02-0.05,0.04-0.16,0.05-0.27C504.95,865.61,504.93,865.72,504.91,865.89z"/>
				<path fill="#A6A6A6" d="M504.28,34.46C504.29,34.48,504.29,34.45,504.28,34.46C504.29,34.28,504.28,34.23,504.28,34.46z"/>
				<path fill="#A6A6A6" d="M504.5,0l0,0.48c0,0.04,0,0.07,0,0.1L504.5,0z"/>
				<path fill="#A6A6A6" d="M505.65,718.11c0,0.05,0,0.07,0,0.12C505.67,718.95,505.67,718.54,505.65,718.11z"/>
				<path fill="#A6A6A6" d="M505.66,466.06c-0.25,2.86-0.32-4.65-0.6-0.35C505.17,465.32,505.5,469.62,505.66,466.06z"/>
				<path fill="#A6A6A6" d="M504.38,969.92c0-0.4,0-0.81,0-1.22C504.38,969.25,504.38,969.63,504.38,969.92z"/>
				<path fill="#A6A6A6" d="M505.06,465.72L505.06,465.72l-0.03,0.44C505.04,465.98,505.05,465.87,505.06,465.72z"/>
				<path fill="#A6A6A6" d="M505.61,654.85c-0.05,0.13-0.08,0.38-0.11,0.65C505.52,655.47,505.55,655.32,505.61,654.85z"/>
				<path fill="#A6A6A6" d="M505.19,701.97l0.03-1.17C505.2,701.27,505.2,701.64,505.19,701.97z"/>
				<path fill="#A6A6A6" d="M505.26,630.38c0.02-0.63,0.06-0.85,0.02-1.72c-0.01,0.08-0.02,0.16-0.03,0.26
					C505.29,629.24,505.3,629.66,505.26,630.38z"/>
				<path fill="#A6A6A6" d="M505.27,604.91c-0.02,0.14-0.04,0.31-0.05,0.47c0,0.25,0.01,0.55,0.01,0.81L505.27,604.91z"/>
				<path fill="#A6A6A6" d="M503.97,111.86c0.04-0.56,0.08-0.9,0.12-1.18C503.99,111.07,503.98,107.33,503.97,111.86z"/>
				<path fill="#A6A6A6" d="M504.4,970.67c-0.01-0.15-0.02-0.37-0.02-0.76c0,0.29,0,0.57,0.01,0.85
					C504.39,970.84,504.4,970.85,504.4,970.67z"/>
				<path fill="#A6A6A6" d="M503.16,629.34l0.03-4.05C503.17,626.43,503.16,627.9,503.16,629.34z"/>
				<path fill="#A6A6A6" d="M503.52,294.57l-0.03-0.93C503.49,294,503.49,294.33,503.52,294.57z"/>
				<path fill="#A6A6A6" d="M503.15,613.29c0.09-0.72,0.15-1.49,0.18-2.28c-0.02-0.17-0.04-0.36-0.07-0.47L503.15,613.29z"/>
				<path fill="#A6A6A6" d="M504.09,110.67C504.09,110.68,504.09,110.68,504.09,110.67C504.09,110.68,504.09,110.68,504.09,110.67z"
					/>
				<path fill="#A6A6A6" d="M503.93,84.02c-0.02,3.86,0.12,1.81,0.2,2.63c0.02,4.6-0.11,2.13-0.19,3.7
					c0.02,2.87,0.15,5.08,0.13,7.22c-0.03,0.16-0.04,0.58-0.06,0.09c0.11,3.04-0.03,9.02,0.12,12.56c-0.02,0.26-0.03,0.4-0.04,0.46
					c0.08-0.57,0.17-0.66,0.23-0.54c0,1.73,0.1,3.21-0.01,3.86c0-1.06-0.04-1.15-0.07-1.64l0.04,1.81
					c-0.16,1.63-0.05-2.47-0.17-2.47c0.04,3.53,0.17,7.65,0.12,10.35c-0.16,0.57-0.04-6.33-0.19-2.72l0.07-4.19
					c-0.26,3.2,0.03-2.54-0.25,0.4c-0.07,5.51,0.06,6.16-0.01,11.66c0.09,1.24,0.14-0.41,0.23,0.83c0.16,7.81-0.46,6.15-0.24,11.89
					c0.11,1.49,0.35,2.06,0.21,6.15l-0.21-1.39c-0.04,5.34,0.3,3.05,0.14,8.63c-0.08-0.99-0.06-4.19-0.09-3.39
					c-0.18,3.62,0.12,2.56,0.11,5.34l-0.2,0.58c0.05,5.68,0.11,11.94,0.17,18.23c-0.06-0.35-0.13-1.43-0.19,0.05
					c0.08,7.93-0.07,16.94-0.23,24.59l0.19,2.92c0,0.68-0.09,1.26-0.13,0.53c-0.09,2.98,0.13,0.15,0.2,1.59
					c0.01,1.7-0.12,2.24-0.18,1.17c0.16,5.26,0.35,14.99,0.11,20.54l-0.06-1.08c-0.1,4.32,0.44,4.87,0.23,8.88l-0.04-0.77
					c-0.12,9.37,0.08,19.73-0.28,26.88c0.34,1.36-0.17,9.28,0.31,9.88c-0.25,5.35-0.33,3.82-0.51,11.36c-0.03,2.01,0.3,3,0.35,5.49
					l-0.26,0.06l0.27,3.38l-0.32,1.8l0.06,2.33c0.02-0.93,0.12-1.98,0.2-1.83c0.06,1.82,0.01,4.04-0.07,5.82
					c-0.08,1.78-0.19,3.11-0.26,3.16l0.21,8.63c-0.11-0.19-0.14-1.64-0.21-2.78c0.27,4.6-0.29,0.84-0.04,5.06
					c0.06-0.57,0.16,0.31,0.22,0.4c-0.17,2.1-0.18,6.89-0.11,10.43l-0.19-0.68c-0.06,6.4,0.07,13.49,0.06,20.67
					c0.09-2.58,0.43-1.98,0.46,0.12l-0.3,0.84c0.18,1.36,0.11-2.2,0.34,0.59c-0.04,2.68-0.34,1.8-0.44,0.26l0.1,3.26
					c-0.09,0.19-0.14-0.57-0.25-0.77c0.19,1.34-0.31,5.63,0.01,7.56l-0.09,0.18c-0.01,7.18,0.09,10.43,0.1,16.28
					c0.27,0.11,0.2,2.4,0.42,4.14c-0.09,4.3-0.3,9.07-0.29,14.24c0.13,3.64,0.23,1.06,0.39,2.7c-0.25,0.27-0.23,5.44-0.4,2.76
					c0.04,6.21,0.04,7.94,0.24,15.8c0.1-0.85,0.15-1.81,0.23-1.32c0.04,1.43-0.11,3.24-0.23,3.04l-0.03-0.38
					c0.37,8.82-0.74,20.36-0.22,27.38l-0.03-0.39l0.27,7.28c-0.04,3.35-0.19-2.01-0.35,0.47c0.42,7.86-0.07,12.42,0.21,18.89
					c-0.76,5.01,0.05,17.77-0.43,24.54l0.18-0.39c0.17,1.75-0.1,2.11-0.14,3.4c0.14-0.18,0.16-1.9,0.26-0.81
					c0.21,14.8-0.26,30.55-0.41,45.73c-0.04,5.55,0.92,3.15,0.5,10.15l-0.33-1.99c0.4,11.2,0,22.9,0.34,33.87
					c-0.07-0.65-0.17-0.67-0.17-1.74c-0.23,2.32-0.01,8.56,0.19,8.6c-0.02,1.71-0.17,0.4-0.27,1.45c-0.14,2.32,0.3,5.83,0.07,7.07
					c-0.04,0.21-0.08-0.65-0.09-1.08c0.11,1.51-0.02,7.05,0.24,5.6c-0.12,4.12,0.12,7.87-0.03,11.16c0.3,2.14-0.14,7.05,0.28,7.72
					c-0.43-0.29-0.34,7.21-0.14,9.82c-0.13-0.87-0.13,2.26-0.31,1.24c0.01,2.97,0.09,5.69,0.31,5.17c-0.5,5.47,0.42,11-0.22,14.08
					c0.24,8.82,0.39,16.98,0.5,24.92c-0.41-0.29-0.05-8.77-0.48-8.43c0.18,7.53,0.53,11.87,0.44,19.33
					c-0.05,1.93-0.17-1.1-0.24-1.75c0.17,7.52-0.01,14.54,0.21,21.23c-0.04-0.02-0.08-0.74-0.11-1.42c0.01,1.32-0.05,3.07,0.12,2.92
					l-0.05-1.29c0.25-2.11,0.54,5.24,0.67,5.47c-0.5-2.24-0.12,6.61-0.75,3.05c0.03,0.87,0.12,1.96,0.23,1.76
					c-0.03,1.29-0.1,1.7-0.23,0.39c0.1,4.72,0.28,3.05,0.28,7.33c-0.08-0.02-0.12-0.88-0.21-1.32c0.17,2.17,0.33,4.34,0.26,7.96
					c-0.05-0.22-0.11,0.2-0.11-0.88c0.04,6.21,0.43,10.59,0.29,17.4c-0.35-2.01-0.11,2.32-0.4,2.68l0.09,3.66l0.14-1.47
					c0,3.21,0.21,6.05,0.12,8.81l-0.12-2.39l0.06,6.02l0.1-3.4c0.15,3.25,0.36-0.35,0.29,3.92c-0.03-0.87,0,3.21-0.17,4.88l0-0.01
					c0.09,1.59,0.18,3.22,0.12,5.6c-0.09,0.62-0.31-0.5-0.37-0.09c0.23,1.57,0.07,7.52,0.32,9.5c-0.06-0.66-0.2-0.7-0.23-0.48
					l0.18,1.32c-0.06,1.49-0.08,1.7-0.2,1.46c-0.03,4.47,0.34-1.42,0.2,3.89c-0.01-0.42-0.04-0.22-0.07-1.09
					c-0.07,5.33,0.12,10.3,0.04,15.2c-0.25,1.45-0.07-4.28-0.28-2.63c0.06,7.06,0.32,14.63,0.27,21.46l0.02-1.27
					c0.34,0.95-0.16,5.09,0,8.55c-0.03-0.85-0.18-1.11-0.15-0.88c-0.04,4.68,0.1,9.57,0.2,16.66l-0.08-0.88
					c-0.07,2.76-0.03,7.26-0.06,10.25c0.08,0.88,0.07,2.59,0.17,1.55c-0.39,9.19,0.23,17.53-0.08,25.68c0-0.97-0.06-2.32-0.06-1.55
					l0.07,6.94c0.1-0.55,0.06-0.91,0.14-2.37c0.06,0.88,0.11,2.84,0.11,4.56c-0.07-3.12-0.17,0.03-0.22,1.38
					c0.03-0.23,0.07,0.24,0.1,0.12c-0.18,3.63,0.2,0.61,0.09,5.56l-0.05-0.26c0.03,1.85,0.09,3.56,0.08,5.56
					c-0.11,0.83-0.05-1.97-0.14-2.1c0.01,2.81,0.21,5.54,0.1,8.08c-0.02-1.19-0.04-2.91-0.06-4.1c-0.12,2.77-0.09,3.09-0.1,5.14
					l0-0.2l-0.04,4.75l0.03-1.21c0.26,3.51,0.06,7.15,0.22,11.89c-0.15-4.6-0.08-0.76-0.18-1.11c-0.03,1.21-0.05,3.05-0.08,2.52
					c0.08,2.24-0.05,3.73,0.07,6.89c-0.03,0.14,0,2.39-0.07,1.89c0.03,2.91,0.05-0.69,0.08-0.44c0.1,4.48-0.07,10.54,0.06,16.98
					c0.07,5.55,0.08,6.59,0.15,11.75c-0.03,1.74-0.06-1.43-0.06-1.43c-0.02,2.81-0.01,4.92,0.01,7.57
					c-0.01-0.54-0.02,0.02-0.04,0.82c0.01,2.12,0.05,1.42,0.04,4.22c-0.01-0.48-0.03-1.11-0.06-2.12c0.02,2.5,0.04,4.98,0.06,7.57
					c-0.02,0.69-0.03-1.56-0.05-2.48c0.02,2.91,0.06,7.51,0.06,8.45l0-1.87c0,1.06-0.02,0.55-0.02-0.24c-0.03-2.5,0-3.6,0.01-3.74
					l0.01,1.85c0.06-1.9-0.01-7.41-0.02-11.13l0.06,1.55l-0.05-3.81c0.02-0.81,0.05-1.37,0.06,0.47c0.03-2.66-0.02-2.36,0.02-4.65
					c0.01-0.25,0.01-0.14,0.01,0.1l-0.02-2.6c0.02,0.51,0.05-0.43,0.04,1.17c0.06-4.67-0.05-7.53,0.02-9.29l0,0.39
					c-0.02-6.48-0.06-0.63-0.15-5.49l0.19-3.27l-0.08-0.64c0-0.67,0.01-1.99,0.04-1.75c-0.05-2.49-0.03,0.42-0.09-1.02
					c0.08-3.22-0.04-8.87,0.11-9.6c-0.07-1.16-0.06,3.08-0.1-0.36c0.16-0.98-0.03-3.97,0.05-6.91c0.09,0.9,0.04,3.69,0.12,0.75
					c-0.15-1.77,0.04-5.73,0.02-8.21c-0.06-0.06-0.08-1.41-0.08-3.26c0-1.85-0.01-4.21-0.01-6.29c0.05,0.26,0.09-7.83,0.15-11.7
					l0.03,0.11c-0.15-0.75-0.12-4.74-0.15-7.65c0.1,0.11,0.14,0.64,0.18,2.21l0.01-2.73c-0.05-0.64-0.08-1.5-0.1-3.27l0.13,0.69
					c0-3.64-0.14-7.33-0.04-12.01c-0.13-0.26-0.35,3.72-0.44-1.23c0.07-0.18,0.19-0.37,0.22,0.93c-0.01-0.42-0.06-1.51-0.03-2.37
					l0.12,1.98c0.05-2.13-0.1-1.11-0.08-2.82c0.1,0.03,0.07-1.26,0.15-1.02c0.01,0.44-0.04,1.49-0.01,2.14
					c0.02-1.92,0.08-4.25,0.16-5.01c-0.06,0.17-0.14,0-0.15-1.41c0-3.64,0.13-1.25,0.19-3.37c-0.07-0.88,0.01-3.2-0.15-3.26
					c0-1.06,0.08-1.26,0.12-1.67c-0.07-1.88,0-8.8-0.18-6.67l-0.01,0.48c0-0.09,0-0.2-0.01-0.31c0,0.02,0,0,0,0.02v-0.02
					c-0.16-6.17,0.11-12.82,0.04-18.94l0.06,0.01c-0.07-3.66-0.03-8.14-0.16-10.75c0-1.08,0.12-2.55,0.19-2.09
					c-0.04-2.79-0.12-3.11-0.01-7.14c0.11,2.81,0.1-0.97,0.08,2.88c0.06-3.63,0.17-4.45-0.01-8.35c0.17,1.33,0.22-2.73,0.17-4.46
					l-0.13,2.54c-0.02-1.94,0-3.64,0.01-5.36l0.23,0.93c0.31-7.43-0.46-13.4,0.03-19.06c-0.17-1.97-0.13,4.04-0.32,2.28
					c0.04-3.42,0.39-6.98,0.4-8.05c0.15-4.68-0.35-4.37-0.25-9.27c-0.09,0.63-0.33,1.22-0.41-2.44c0.03-3.42,0.39-4.2,0.46-2.04
					c0.01,0.82-0.02,1.22-0.05,1.18c0.03,1.11,0.07,2.55,0.17,1.2l-0.09-0.44c0.1-1.7,0.09-6.4,0.24-5.3
					c-0.08-2.58-0.15-1.11-0.2,0.81c0.14-4.39,0.01-6.85,0.11-11.37c-0.05,0.72-0.16,1.38-0.16,0.66c0.13-6.62-0.18-2.92-0.21-7.4
					c0.15-2.55,0.35,0.91,0.23-3.6c0.1-2.76,0.26-0.58,0.33,0.51c-0.18-4.12,0.14-7.69,0.18-10.04l0.07,2.17
					c-0.04-1.3-0.04-2.36-0.04-3.44l-0.2,1.24c0.04-1.27,0.04-2.35,0.12-2.33c-0.13-1.31-0.33,1-0.5-1.6c0.1-1.7-0.1-5.17,0.16-5.75
					c-0.1,5.34,0.27-0.59,0.3,3.93c-0.03-0.87-0.03-1.93,0.01-3.21c0.03-0.19,0.05,0.18,0.07,0.53c0.25-5.11-0.3-2.35-0.28-7.64
					c0.15,0.67,0.29-1.23,0.26-2.09c-0.01,2.13-0.25,1.02-0.37-0.94c0.12-3.39-0.08-3.69-0.07-5.47l-0.06,2.03
					c-0.15-0.69-0.13-2.38-0.18-4.75c0.12-0.2,0.08,2.15,0.13,1.3c-0.27-2.63,0.29-5.94,0.11-9.6c0.11-1.7,0.29-0.16,0.37-1.65
					c-0.2-4.1,0.22-4.45,0.06-8.76c-0.21,1.24-0.16,1.46-0.37-1.58l0.14,7.09l-0.3-4.55c0,2.14,0.13,4.52,0.09,5.8
					c-0.17-2.17-0.12-1.95-0.29-0.92c0.32-2.93-0.18-5.81,0.03-9.19l0.53,0.1c0.24-5.09-0.26-9.04-0.12-15.65l-0.1,2.12
					c-0.21-0.89-0.03-4.08-0.11-6.22c0.18,0.2,0.25-1.14,0.36-2.05c-0.14,0.11,0.02-4.84-0.35-5.44l0.24-2.95
					c0.11-5.34-0.52-6.09-0.46-11.22c0.2,1.55,0.33-0.79,0.48,2.65c0-1.71,0.04-3.25-0.09-3.28c0.12-1-0.25-4.75-0.07-6.33
					c-0.08-0.72-0.28-0.96-0.26-2.88c0.04-0.21,0.09,0.01,0.09,0.01c-0.09-0.01-0.12-3.01-0.33-1.33
					c0.59-5.28-0.04-14.75,0.47-19.34c-0.04-3.74-0.1-8.24-0.13-11.64c0.06,0.22,0.1,0.01,0.08,0.65c0.18-4.68-0.55-2.88-0.35-8.21
					c0.31-2.72,0.17,2.83,0.29,1.13c0.63-0.74-0.08-6.43,0.29-10.01l0.04,0.87c0.22-2.74-0.24-6.69-0.19-11.16
					c0,0,0.06,0.22,0.1,0.03c-0.33-3.06-0.43-8.86-0.52-13.17c0.25,1.34,0.13,1.96,0.39,1.14c-0.04-1.93-0.41,0.57-0.48-3.29
					c0.14-1.25,0.26-4.03,0.53-4.4l0.01,3.64c0.35-1.86-0.01-4.71,0.05-6.62l0.15,0.24c-0.05-5.57-0.44-5.65-0.41-11.64l-0.12,0.62
					c-0.39-3.27,0.22-2.74-0.07-6.01l0.39-0.99c-0.09-2.16-0.38-7.56-0.45-11.43c0.29,2.19,0.44,6.72,0.61,9.53
					c0-2.14-0.03-7.27-0.22-8.39c0.04,0.86,0.13,1.95,0.07,2.8c-0.31-2.63-0.46-6.08-0.46-10.35c0.76,0.76,0.19-11.12,0.79-14.21
					c-0.28-7.54,0.12-14.97,0.07-23.76c-0.59,3.12-0.02-2.57-0.63-2.03c-0.04-2.05-0.03-2.83,0.01-3.01l0.36-6.2
					c0.18-1.47,0.13,1.95,0.27,1.76c0.05-4.48,0.26-1.88,0.42-4.85c-0.22,0.61-0.31-1.56-0.23-4.11l-0.28,3.6
					c-0.32-6.26,0.51-5.41,0.19-11.73l0.19,2c-0.11-3.24,0-11.95-0.49-15.13c0.07-0.57,0.23-1.33,0.28,0.1
					c0.07-7.74-0.52-17.24-0.23-23.26l0.15,0.59c-0.04-1.44-0.27-2.51-0.13-4.32c0.06,0.09,0.15,0.58,0.15-0.09
					c-0.05-0.76-0.26-3.84-0.17-5.75l0.16,1.64c0.18-7.55-0.4-11.59-0.5-17.93c0.42,0.02,0.55-5.93,0.61-8.89l0.06,0.1
					c0.04-8.8-0.36-14.94-0.53-23.08c0.43-5.06,0.17-17.13,0.39-25.25c-0.07,1.24-0.31-0.2-0.35-1.65c0.08-1.91-0.28-5.27,0.08-4.97
					l-0.01,0.68c0.35-1.44,0.25-5.36,0.25-8.42l-0.46-0.5c0.66-8-0.27-20.97,0.31-25.34c-0.11-1.93-0.12-4.32-0.23-6.24l0.24,0.1
					c0.05-5.35,0.07-8.02,0-14.64l0.17,1.35c0.01-3.73-0.67-4.71-0.69-8.15l0.33-1.04c-0.02-6.51,0.25-13.1-0.05-19.53
					c0.05,0.11,0.14,0.3,0.16,1.35c0-3.06,0.18-11.85-0.25-10.74c0.28-0.08,0.01-6.72-0.11-10.23l0.2,0.55
					c-0.26-2.97-0.33-3.06-0.41-7.2c0.02-0.98,0.16-0.86,0.11,0.44c0.1-3.27-0.19-2.55-0.09-6.52l0.13,1.48
					c0.01-3.37-0.06-3.1-0.2-4.95c-0.08-2.12,0.04-6.39,0.21-6.88c-0.1-0.45-0.24-2.3-0.2-4.28c0.06-0.27,0.1,0.45,0.12,0.82
					c0.11-5.63-0.22-8.37-0.05-12.24c0.06-0.08,0.09-0.33,0.1-0.65c0.01,4.47,0,8.07-0.01,7.74c0.17,0,0.19-3.61,0.42-0.74
					c-0.14-2.9-0.42-7.86-0.35-11.38c0.02-0.17,0.03-0.34,0.05-0.47l0.02,0.36c0.01-0.81,0-1.54-0.03-2.23
					c0.02-1.12,0.04-1.84,0.04-2.92c0.13-0.42,0.06-4.14,0.06-5.94c-0.17,0.15-0.15-2.21-0.28,0c0.01-0.29,0.02,0.34,0.03,1.54
					c0.01,0.27,0.01,0.59,0.02,0.77c0-0.03-0.01-0.08-0.02-0.12c0.01,1.18,0.01,2.72,0.02,4.48c-0.09-1.42-0.16-2.91-0.07-4.9
					c-0.1-0.93-0.21-1.94-0.27-2.51c0.23-2.46,0.34-7.22,0.48-7.88c-0.1-5.5-0.1-12.96-0.38-16.41c-0.04-1.56,0.08-1.8,0.12-2.38
					c0.03,0.9,0.03,1.98,0.07,2.46c-0.08-3.13-0.05-9.26-0.23-10.01c0.08-3.94,0.17,2.21,0.13-3.2l0.06,0.73
					c0.23-10.65-0.46-17.32-0.15-29.13c-0.02,0.82-0.02,1.23-0.05,1.39c0.09-13.46-0.14-27.75-0.02-41.03
					c0.02-3.78-0.04-4.19-0.09-6.49l0.07-0.82l-0.08-3.94c-0.05-5.59,0.11-9.68,0.01-16.75l-0.03,0.91c0-2.54-0.03-8.05,0-7.62
					c0-0.26-0.02-0.83-0.01-1.83l0.01-0.08l-0.04-6.24c0-4.84,0.04,0.76,0.01-6.3c-0.01-2.52-0.03-5.54-0.03-6.49
					c0,1.05,0,2.61,0,2.79l0-2.4c-0.01-0.44,0.01-2.28-0.03,3.61l-0.01,4.11l-0.02,1.32l0.02-3.46c-0.01,1.97-0.01,3.2-0.02,4.59
					c0,0.35-0.01,0.91-0.02,1.72l0.01,4.03c-0.02,0.49-0.02-1.81-0.04,0.9c0.01,1.89,0.04-1.81,0.04,1.32
					c-0.03,1.96-0.04,1.39-0.03,3.7c-0.01,0.32-0.02-0.16-0.02-1.08c0,2.05-0.02,5.43,0.01,6.49c-0.05,2.05-0.02,6.93-0.09,6.73
					c0,0.65,0.03,3.62,0.04,5.5c-0.08-3.44-0.04,7.06-0.15,6.15c0.09,2.55,0,9.21,0.05,13.72c-0.01-0.25-0.03-0.75-0.02-1.15
					c-0.02,2.54-0.06,3.28-0.1,4.91c0.11,0.33,0.12,4.28,0.19,6.42c-0.13,3.11-0.13-1.89-0.25-0.91c0.1-0.16,0.07,5.41,0.16,4.35
					c-0.08,2.38-0.04,2.05-0.16,3.28c0.16,0.42,0.02,2.22,0.11,4.19c-0.1,3.45-0.16,0.89-0.13,4.67
					C503.98,87.39,503.93,84.02,503.93,84.02z M504.03,174.07L504.03,174.07c-0.01-0.78-0.01-1.44-0.01-1.86
					C504.03,172.6,504.03,173.14,504.03,174.07z M504.02,181.64c0-0.92,0.01-2.07,0.01-3.28c0.06-0.27,0.12,0.02,0.12,0.78
					C504.12,178.73,504.08,180.51,504.02,181.64z M505.22,165.64c0.03,1.2,0,1.6-0.04,1.76c-0.01-0.57-0.02-1.23-0.03-2.09
					c-0.01-0.04-0.02-0.11-0.02-0.14C505.17,165.28,505.2,165.41,505.22,165.64z"/>
				<path fill="#A6A6A6" d="M505,163.48c0-0.17-0.01-0.27-0.01-0.49c-0.01,0.25-0.02,0.48-0.04,0.71c0.02,0.15,0.04,0.29,0.05,0.42
					C505,163.91,505,163.68,505,163.48z"/>
				<path fill="#A6A6A6" d="M504.74,849.5l0-0.16c-0.01,0.13-0.02,0.25-0.02,0.34C504.73,849.57,504.73,849.57,504.74,849.5z"/>
				<polygon fill="#A6A6A6" points="503.42,286.14 503.48,286.13 503.43,285.47 				"/>
				<path fill="#A6A6A6" d="M504.26,891.18c-0.01,0.08-0.02,0.24-0.03,0.55C504.24,891.71,504.25,891.47,504.26,891.18z"/>
				<path fill="#A6A6A6" d="M504.27,909.19l-0.03,2.55C504.25,910.63,504.26,909.83,504.27,909.19z"/>
				<path fill="#A6A6A6" d="M504.25,923.03c0.02,0.18,0.03,0.23,0.04,0.27c0-0.01,0-0.02,0-0.03L504.25,923.03z"/>
				<path fill="#A6A6A6" d="M503.57,702.93c0-0.19-0.01-0.37-0.01-0.53C503.51,701.14,503.53,701.99,503.57,702.93z"/>
				<path fill="#A6A6A6" d="M504.18,768.43c-0.03-0.7-0.07-1.38-0.1-2.11C504.06,767.49,504.06,768.39,504.18,768.43z"/>
				<path fill="#A6A6A6" d="M503.16,629.79C503.16,629.79,503.16,629.79,503.16,629.79c0-0.15,0-0.29,0-0.44L503.16,629.79z"/>
				<path fill="#A6A6A6" d="M504.08,763.28c-0.04,1.17-0.03,2.14,0,3.05C504.09,765.37,504.11,764.24,504.08,763.28z"/>
				<path fill="#A6A6A6" d="M504.42,983.03l0,0.67c0-0.01,0,0.03,0,0.08L504.42,983.03z"/>
				<path fill="#A6A6A6" d="M504.43,983.77l0.01,0.74C504.43,984.18,504.43,983.88,504.43,983.77z"/>
				<path fill="#A6A6A6" d="M504.45,986.07l-0.01-1.56C504.44,985.05,504.44,985.71,504.45,986.07z"/>
				<path fill="#A6A6A6" d="M504.37,964.7l-0.02-0.21C504.36,964.61,504.37,964.68,504.37,964.7z"/>
				<path fill="#A6A6A6" d="M504.35,959.13c0,1.33-0.01,3.33-0.01,5.19l0.01,0.17C504.33,963.62,504.39,960.4,504.35,959.13z"/>
				<path fill="#A6A6A6" d="M504.64,935.89l-0.03,4.67c0.03-0.82,0.07-1.89,0.07,0.23C504.79,934.91,504.61,942,504.64,935.89z"/>
				<path fill="#A6A6A6" d="M504.72,921.42c0.01,2.51,0.05-0.03,0.07,0.1C504.76,919.93,504.75,919.55,504.72,921.42z"/>
				<path fill="#A6A6A6" d="M504.92,816.85l0.17,0.25C505.06,815.17,505.02,817.09,504.92,816.85z"/>
				<polygon fill="#A6A6A6" points="504.03,796.87 503.92,798.75 504.08,799.64 				"/>
				<polygon fill="#A6A6A6" points="505.32,785.06 505.35,785.9 505.29,782.68 				"/>
				<path fill="#A6A6A6" d="M505.51,609.44l-0.3,0.58C505.26,611.33,505.6,611.6,505.51,609.44z"/>
				<path fill="#A6A6A6" d="M505.23,533.62c0.16-0.83,0.26-2.96,0.1-4.27C505.31,531.06,505.19,532.76,505.23,533.62z"/>
				<polygon fill="#A6A6A6" points="505.59,306.25 505.68,307.77 505.6,304.9 				"/>
			</g>
		</g>
	</g>
</g>
<g>
	<g>
		<g>
			<g>
				<path fill="#A6A6A6" d="M790.5,991c0,0.53,0,0.23,0-1.22l-0.01-1.03L790.5,991z"/>
				<path fill="#A6A6A6" d="M790.5,981.24c-0.01-1.71-0.03-3.67-0.05-2.57c0.02,1.7,0.02,2.08,0.04,3.92c0,1.45,0,2.53,0,2.29
					c0,0.52,0.01,2.23,0.01,3.04c0-1.9-0.01-4.28-0.01-6.78C790.49,980.6,790.49,981.12,790.5,981.24z"/>
				<path fill="#A6A6A6" d="M790.76,839.43l-0.02,0.91C790.75,840.09,790.75,839.78,790.76,839.43z"/>
				<path fill="#A6A6A6" d="M791,751.56c0.01,0.67,0.03,0.95,0.05,0.98C791.03,751.92,791.02,751.41,791,751.56z"/>
				<path fill="#A6A6A6" d="M791.3,736.56c-0.01,0.32-0.01,0.59-0.02,0.88C791.31,737.11,791.32,736.77,791.3,736.56z"/>
				<path fill="#A6A6A6" d="M790.76,839.43l0.06-2.35C790.76,836.92,790.78,838.28,790.76,839.43z"/>
				<path fill="#A6A6A6" d="M790.38,961.69c0.01,0.49,0.01,0.9,0.02,1.27c0-0.4-0.01-0.79-0.01-1.2
					C790.38,961.74,790.38,961.72,790.38,961.69z"/>
				<path fill="#A6A6A6" d="M790.83,878.16l0,0.71c0.02,0.21,0.04,0.4,0.06,0.59L790.83,878.16z"/>
				<path fill="#A6A6A6" d="M790.78,907.89c0.01-0.67-0.09-0.91-0.14-1.16c0.04,0.38,0.06,0.88,0.07,1.47
					C790.73,908.2,790.75,908.11,790.78,907.89z"/>
				<path fill="#A6A6A6" d="M790.55,955.02l0.01,0.84C790.55,955.64,790.55,955.28,790.55,955.02z"/>
				<path fill="#A6A6A6" d="M790.91,856.89c0.02-0.05,0.04-0.16,0.05-0.27C790.95,856.61,790.93,856.72,790.91,856.89z"/>
				<path fill="#A6A6A6" d="M790.28,25.46C790.29,25.48,790.29,25.45,790.28,25.46C790.29,25.28,790.28,25.23,790.28,25.46z"/>
				<path fill="#A6A6A6" d="M790.5-9l0,0.48c0,0.04,0,0.07,0,0.1L790.5-9z"/>
				<path fill="#A6A6A6" d="M791.65,709.11c0,0.05,0,0.07,0,0.12C791.67,709.95,791.67,709.54,791.65,709.11z"/>
				<path fill="#A6A6A6" d="M791.66,457.06c-0.25,2.86-0.32-4.65-0.6-0.35C791.17,456.32,791.5,460.62,791.66,457.06z"/>
				<path fill="#A6A6A6" d="M790.38,960.92c0-0.4,0-0.81,0-1.22C790.38,960.25,790.38,960.63,790.38,960.92z"/>
				<path fill="#A6A6A6" d="M791.06,456.72L791.06,456.72l-0.03,0.44C791.04,456.98,791.05,456.87,791.06,456.72z"/>
				<path fill="#A6A6A6" d="M791.61,645.85c-0.05,0.13-0.08,0.38-0.11,0.65C791.52,646.47,791.55,646.32,791.61,645.85z"/>
				<path fill="#A6A6A6" d="M791.19,692.97l0.03-1.17C791.2,692.27,791.2,692.64,791.19,692.97z"/>
				<path fill="#A6A6A6" d="M791.26,621.38c0.02-0.63,0.06-0.85,0.02-1.72c-0.01,0.08-0.02,0.16-0.03,0.26
					C791.29,620.24,791.3,620.66,791.26,621.38z"/>
				<path fill="#A6A6A6" d="M791.27,595.91c-0.02,0.14-0.04,0.31-0.05,0.47c0,0.25,0.01,0.55,0.01,0.81L791.27,595.91z"/>
				<path fill="#A6A6A6" d="M789.97,102.86c0.04-0.56,0.08-0.9,0.12-1.18C789.99,102.07,789.98,98.33,789.97,102.86z"/>
				<path fill="#A6A6A6" d="M790.4,961.67c-0.01-0.15-0.02-0.37-0.02-0.76c0,0.29,0,0.57,0.01,0.85
					C790.39,961.84,790.4,961.85,790.4,961.67z"/>
				<path fill="#A6A6A6" d="M789.16,620.34l0.03-4.05C789.17,617.43,789.16,618.9,789.16,620.34z"/>
				<path fill="#A6A6A6" d="M789.52,285.57l-0.03-0.93C789.49,285,789.49,285.33,789.52,285.57z"/>
				<path fill="#A6A6A6" d="M789.15,604.29c0.09-0.72,0.15-1.49,0.18-2.28c-0.02-0.17-0.04-0.36-0.07-0.47L789.15,604.29z"/>
				<path fill="#A6A6A6" d="M790.09,101.67C790.09,101.68,790.09,101.68,790.09,101.67C790.09,101.68,790.09,101.68,790.09,101.67z"
					/>
				<path fill="#A6A6A6" d="M789.93,75.02c-0.02,3.86,0.12,1.81,0.2,2.63c0.02,4.6-0.11,2.13-0.19,3.7
					c0.02,2.87,0.15,5.08,0.13,7.22c-0.03,0.16-0.04,0.58-0.06,0.09c0.11,3.04-0.03,9.02,0.12,12.56c-0.02,0.26-0.03,0.4-0.04,0.46
					c0.08-0.57,0.17-0.66,0.23-0.54c0,1.73,0.1,3.21-0.01,3.86c0-1.06-0.04-1.15-0.07-1.64l0.04,1.81
					c-0.16,1.63-0.05-2.47-0.17-2.47c0.04,3.53,0.17,7.65,0.12,10.35c-0.16,0.57-0.04-6.33-0.19-2.72l0.07-4.19
					c-0.26,3.2,0.03-2.54-0.25,0.4c-0.07,5.51,0.06,6.16-0.01,11.66c0.09,1.24,0.14-0.41,0.23,0.83c0.16,7.81-0.46,6.15-0.24,11.89
					c0.11,1.49,0.35,2.06,0.21,6.15l-0.21-1.39c-0.04,5.34,0.3,3.05,0.14,8.63c-0.08-0.99-0.06-4.19-0.09-3.39
					c-0.18,3.62,0.12,2.56,0.11,5.34l-0.2,0.58c0.05,5.68,0.11,11.94,0.17,18.23c-0.06-0.35-0.13-1.43-0.19,0.05
					c0.08,7.93-0.07,16.94-0.23,24.59l0.19,2.92c0,0.68-0.09,1.26-0.13,0.53c-0.09,2.98,0.13,0.15,0.2,1.59
					c0.01,1.7-0.12,2.24-0.18,1.17c0.16,5.26,0.35,14.99,0.11,20.54l-0.06-1.08c-0.1,4.32,0.44,4.87,0.23,8.88l-0.04-0.77
					c-0.12,9.37,0.08,19.73-0.28,26.88c0.34,1.36-0.17,9.28,0.31,9.88c-0.25,5.35-0.33,3.82-0.51,11.36c-0.03,2.01,0.3,3,0.35,5.49
					l-0.26,0.06l0.27,3.38l-0.32,1.8l0.06,2.33c0.02-0.93,0.12-1.98,0.2-1.83c0.06,1.82,0.01,4.04-0.07,5.82
					c-0.08,1.78-0.19,3.11-0.26,3.16l0.21,8.63c-0.11-0.19-0.14-1.64-0.21-2.78c0.27,4.6-0.29,0.84-0.04,5.06
					c0.06-0.57,0.16,0.31,0.22,0.4c-0.17,2.1-0.18,6.89-0.11,10.43l-0.19-0.68c-0.06,6.4,0.07,13.49,0.06,20.67
					c0.09-2.58,0.43-1.98,0.46,0.12l-0.3,0.84c0.18,1.36,0.11-2.2,0.34,0.59c-0.04,2.68-0.34,1.8-0.44,0.26l0.1,3.26
					c-0.09,0.19-0.14-0.57-0.25-0.77c0.19,1.34-0.31,5.63,0.01,7.56l-0.09,0.18c-0.01,7.18,0.09,10.43,0.1,16.28
					c0.27,0.11,0.2,2.4,0.42,4.14c-0.09,4.3-0.3,9.07-0.29,14.24c0.13,3.64,0.23,1.06,0.39,2.7c-0.25,0.27-0.23,5.44-0.4,2.76
					c0.04,6.21,0.04,7.94,0.24,15.8c0.1-0.85,0.15-1.81,0.23-1.32c0.04,1.43-0.11,3.24-0.23,3.04l-0.03-0.38
					c0.37,8.82-0.74,20.36-0.22,27.38l-0.03-0.39l0.27,7.28c-0.04,3.35-0.19-2.01-0.35,0.47c0.42,7.86-0.07,12.42,0.21,18.89
					c-0.76,5.01,0.05,17.77-0.43,24.54l0.18-0.39c0.17,1.75-0.1,2.11-0.14,3.4c0.14-0.18,0.16-1.9,0.26-0.81
					c0.21,14.8-0.26,30.55-0.41,45.73c-0.04,5.55,0.92,3.15,0.5,10.15l-0.33-1.99c0.4,11.2,0,22.9,0.34,33.87
					c-0.08-0.65-0.17-0.67-0.17-1.74c-0.23,2.32-0.01,8.56,0.19,8.6c-0.02,1.71-0.17,0.4-0.27,1.45c-0.14,2.32,0.3,5.83,0.07,7.07
					c-0.04,0.21-0.08-0.65-0.09-1.08c0.11,1.51-0.02,7.05,0.24,5.6c-0.12,4.12,0.12,7.87-0.03,11.16c0.3,2.14-0.14,7.05,0.28,7.72
					c-0.43-0.29-0.34,7.21-0.14,9.82c-0.13-0.87-0.13,2.26-0.31,1.24c0.01,2.97,0.09,5.69,0.31,5.17c-0.5,5.47,0.42,11-0.22,14.08
					c0.24,8.82,0.39,16.98,0.5,24.92c-0.41-0.29-0.05-8.77-0.48-8.43c0.18,7.53,0.53,11.87,0.44,19.33
					c-0.05,1.93-0.17-1.1-0.24-1.75c0.17,7.52-0.01,14.54,0.21,21.23c-0.04-0.02-0.08-0.74-0.11-1.42c0.01,1.32-0.05,3.07,0.12,2.92
					l-0.05-1.29c0.25-2.11,0.54,5.24,0.67,5.47c-0.5-2.24-0.12,6.61-0.75,3.05c0.03,0.87,0.12,1.96,0.23,1.76
					c-0.03,1.29-0.1,1.7-0.23,0.39c0.1,4.72,0.28,3.05,0.28,7.33c-0.08-0.02-0.12-0.88-0.21-1.32c0.17,2.17,0.33,4.34,0.26,7.96
					c-0.05-0.22-0.11,0.2-0.11-0.88c0.04,6.21,0.43,10.59,0.29,17.4c-0.35-2.01-0.11,2.32-0.4,2.68l0.09,3.66l0.14-1.47
					c0,3.21,0.21,6.05,0.12,8.81l-0.12-2.39l0.06,6.02l0.1-3.4c0.15,3.25,0.36-0.35,0.29,3.92c-0.03-0.87,0,3.21-0.17,4.88l0-0.01
					c0.09,1.59,0.18,3.22,0.12,5.6c-0.09,0.62-0.31-0.5-0.37-0.09c0.23,1.57,0.07,7.52,0.32,9.5c-0.06-0.66-0.2-0.7-0.23-0.48
					l0.18,1.32c-0.06,1.49-0.08,1.7-0.2,1.46c-0.03,4.47,0.34-1.42,0.2,3.89c-0.01-0.42-0.04-0.22-0.07-1.09
					c-0.07,5.33,0.12,10.3,0.04,15.2c-0.25,1.45-0.07-4.28-0.28-2.63c0.06,7.06,0.32,14.63,0.27,21.46l0.02-1.27
					c0.34,0.95-0.16,5.09,0,8.55c-0.03-0.85-0.18-1.11-0.15-0.88c-0.04,4.68,0.1,9.57,0.2,16.66l-0.08-0.88
					c-0.07,2.76-0.03,7.26-0.06,10.25c0.08,0.88,0.07,2.59,0.17,1.55c-0.39,9.19,0.23,17.53-0.08,25.68c0-0.97-0.06-2.32-0.06-1.55
					l0.07,6.94c0.1-0.55,0.06-0.91,0.14-2.37c0.06,0.88,0.11,2.84,0.11,4.56c-0.07-3.12-0.17,0.03-0.22,1.38
					c0.03-0.23,0.07,0.24,0.1,0.12c-0.18,3.63,0.2,0.61,0.09,5.56l-0.05-0.26c0.03,1.85,0.09,3.56,0.08,5.56
					c-0.11,0.83-0.05-1.97-0.14-2.1c0.01,2.81,0.21,5.54,0.1,8.08c-0.02-1.19-0.04-2.91-0.06-4.1c-0.12,2.77-0.09,3.09-0.1,5.14
					l0-0.2l-0.04,4.75l0.03-1.21c0.26,3.51,0.06,7.15,0.22,11.89c-0.15-4.6-0.08-0.76-0.18-1.11c-0.03,1.21-0.05,3.05-0.08,2.52
					c0.08,2.24-0.05,3.73,0.07,6.89c-0.03,0.14,0,2.39-0.07,1.89c0.03,2.91,0.05-0.69,0.08-0.44c0.1,4.48-0.07,10.54,0.06,16.98
					c0.07,5.55,0.09,6.59,0.15,11.75c-0.03,1.74-0.06-1.43-0.06-1.43c-0.02,2.81-0.01,4.92,0.01,7.57
					c-0.01-0.54-0.02,0.02-0.04,0.82c0.01,2.12,0.05,1.42,0.04,4.22c-0.01-0.48-0.03-1.11-0.06-2.12c0.02,2.5,0.04,4.98,0.06,7.57
					c-0.02,0.69-0.03-1.56-0.05-2.48c0.02,2.91,0.06,7.51,0.06,8.45l0-1.87c0,1.06-0.02,0.55-0.02-0.24c-0.03-2.5,0-3.6,0.01-3.74
					l0.01,1.85c0.06-1.9-0.01-7.41-0.02-11.13l0.06,1.55l-0.05-3.81c0.02-0.81,0.05-1.37,0.06,0.47c0.03-2.66-0.02-2.36,0.02-4.65
					c0.01-0.25,0.01-0.14,0.01,0.1l-0.02-2.6c0.02,0.51,0.05-0.43,0.04,1.17c0.06-4.67-0.05-7.53,0.02-9.29l0,0.39
					c-0.02-6.48-0.06-0.63-0.15-5.49l0.19-3.27l-0.08-0.64c0-0.67,0.01-1.99,0.04-1.75c-0.05-2.49-0.03,0.42-0.09-1.02
					c0.08-3.22-0.04-8.87,0.11-9.6c-0.07-1.16-0.06,3.08-0.1-0.36c0.16-0.98-0.03-3.97,0.05-6.91c0.09,0.9,0.04,3.69,0.12,0.75
					c-0.15-1.77,0.04-5.73,0.02-8.21c-0.06-0.06-0.08-1.41-0.08-3.26c0-1.85-0.01-4.21-0.01-6.29c0.05,0.26,0.09-7.83,0.15-11.7
					l0.03,0.11c-0.15-0.75-0.12-4.74-0.15-7.65c0.1,0.11,0.14,0.64,0.18,2.21l0.01-2.73c-0.05-0.64-0.08-1.5-0.1-3.27l0.13,0.69
					c0-3.64-0.14-7.33-0.04-12.01c-0.13-0.26-0.35,3.72-0.44-1.23c0.07-0.18,0.19-0.37,0.22,0.93c-0.01-0.42-0.06-1.51-0.03-2.37
					l0.12,1.98c0.05-2.13-0.1-1.11-0.08-2.82c0.1,0.03,0.07-1.26,0.15-1.02c0.01,0.44-0.04,1.49-0.01,2.14
					c0.02-1.92,0.08-4.25,0.16-5.01c-0.06,0.17-0.14,0-0.15-1.41c0-3.64,0.13-1.25,0.19-3.37c-0.07-0.88,0.01-3.2-0.15-3.26
					c0-1.06,0.08-1.26,0.12-1.67c-0.07-1.88,0-8.8-0.18-6.67l-0.01,0.48c0-0.09,0-0.2-0.01-0.31c0,0.02,0,0,0,0.02l0-0.02
					c-0.16-6.17,0.11-12.82,0.04-18.94l0.06,0.01c-0.07-3.66-0.03-8.14-0.16-10.75c0-1.08,0.12-2.55,0.19-2.09
					c-0.04-2.79-0.12-3.11-0.01-7.14c0.11,2.81,0.1-0.97,0.08,2.88c0.06-3.63,0.17-4.45-0.01-8.35c0.17,1.33,0.22-2.73,0.17-4.46
					l-0.13,2.54c-0.02-1.94,0-3.64,0.01-5.36l0.23,0.93c0.31-7.43-0.46-13.4,0.03-19.06c-0.17-1.97-0.13,4.04-0.32,2.28
					c0.04-3.42,0.39-6.98,0.4-8.05c0.15-4.68-0.35-4.37-0.25-9.27c-0.09,0.63-0.33,1.22-0.41-2.44c0.03-3.42,0.39-4.2,0.46-2.04
					c0.01,0.82-0.02,1.22-0.05,1.18c0.03,1.11,0.07,2.55,0.17,1.2l-0.09-0.44c0.1-1.7,0.09-6.4,0.24-5.3
					c-0.08-2.58-0.15-1.11-0.2,0.81c0.14-4.39,0.01-6.85,0.11-11.37c-0.05,0.72-0.16,1.38-0.16,0.66c0.13-6.62-0.18-2.92-0.21-7.4
					c0.15-2.55,0.35,0.91,0.23-3.6c0.1-2.76,0.26-0.58,0.33,0.51c-0.18-4.12,0.14-7.69,0.18-10.04l0.07,2.17
					c-0.04-1.3-0.04-2.36-0.04-3.44l-0.2,1.24c0.04-1.27,0.04-2.35,0.12-2.33c-0.13-1.31-0.33,1-0.5-1.6c0.1-1.7-0.1-5.17,0.16-5.75
					c-0.1,5.34,0.27-0.59,0.3,3.93c-0.03-0.87-0.03-1.93,0.01-3.21c0.03-0.19,0.05,0.18,0.07,0.53c0.25-5.11-0.3-2.35-0.28-7.64
					c0.15,0.67,0.29-1.23,0.26-2.09c-0.01,2.13-0.25,1.02-0.37-0.94c0.12-3.39-0.08-3.69-0.07-5.47l-0.06,2.03
					c-0.15-0.69-0.13-2.38-0.18-4.75c0.12-0.2,0.08,2.15,0.13,1.3c-0.27-2.63,0.29-5.94,0.11-9.6c0.11-1.7,0.29-0.16,0.37-1.65
					c-0.2-4.1,0.22-4.45,0.06-8.76c-0.21,1.24-0.16,1.46-0.37-1.58l0.14,7.09l-0.3-4.55c0,2.14,0.13,4.52,0.09,5.8
					c-0.17-2.17-0.12-1.95-0.29-0.92c0.32-2.93-0.18-5.81,0.03-9.19l0.53,0.1c0.24-5.09-0.26-9.04-0.12-15.65l-0.1,2.12
					c-0.21-0.89-0.03-4.08-0.11-6.22c0.18,0.2,0.25-1.14,0.36-2.05c-0.14,0.11,0.02-4.84-0.35-5.44l0.24-2.95
					c0.11-5.34-0.52-6.09-0.46-11.22c0.2,1.55,0.33-0.79,0.48,2.65c0-1.71,0.04-3.25-0.09-3.28c0.12-1-0.25-4.75-0.07-6.33
					c-0.08-0.72-0.28-0.96-0.26-2.88c0.04-0.21,0.09,0.01,0.09,0.01c-0.09-0.01-0.12-3.01-0.33-1.33
					c0.59-5.28-0.04-14.75,0.47-19.34c-0.04-3.74-0.1-8.24-0.13-11.64c0.06,0.22,0.1,0.01,0.08,0.65c0.18-4.68-0.55-2.88-0.35-8.21
					c0.31-2.72,0.17,2.83,0.29,1.13c0.63-0.74-0.08-6.43,0.29-10.01l0.04,0.87c0.22-2.74-0.24-6.69-0.19-11.16
					c0,0,0.06,0.22,0.1,0.03c-0.33-3.06-0.43-8.86-0.52-13.17c0.25,1.34,0.13,1.96,0.39,1.14c-0.04-1.93-0.41,0.57-0.48-3.29
					c0.14-1.25,0.26-4.03,0.53-4.4l0.01,3.64c0.35-1.86-0.01-4.71,0.05-6.62l0.15,0.24c-0.05-5.57-0.44-5.65-0.41-11.64l-0.12,0.62
					c-0.39-3.27,0.22-2.74-0.07-6.01l0.39-0.99c-0.09-2.16-0.38-7.56-0.45-11.43c0.29,2.19,0.44,6.72,0.61,9.53
					c0-2.14-0.03-7.27-0.22-8.39c0.04,0.86,0.13,1.95,0.07,2.8c-0.31-2.63-0.46-6.08-0.46-10.35c0.76,0.76,0.19-11.12,0.79-14.21
					c-0.28-7.54,0.12-14.97,0.07-23.76c-0.59,3.12-0.02-2.57-0.63-2.03c-0.04-2.05-0.03-2.83,0.01-3.01l0.36-6.2
					c0.18-1.47,0.13,1.95,0.27,1.76c0.05-4.48,0.26-1.88,0.42-4.85c-0.22,0.61-0.31-1.56-0.23-4.11l-0.28,3.6
					c-0.32-6.26,0.51-5.41,0.19-11.73l0.19,2c-0.11-3.24,0-11.95-0.49-15.13c0.07-0.57,0.23-1.33,0.28,0.1
					c0.07-7.74-0.52-17.24-0.23-23.26l0.15,0.59c-0.04-1.44-0.27-2.51-0.13-4.32c0.06,0.09,0.15,0.58,0.15-0.09
					c-0.05-0.76-0.26-3.84-0.17-5.75l0.16,1.64c0.18-7.55-0.4-11.59-0.5-17.93c0.42,0.02,0.55-5.93,0.61-8.89l0.06,0.1
					c0.04-8.8-0.36-14.94-0.53-23.08c0.43-5.06,0.17-17.13,0.39-25.25c-0.07,1.24-0.31-0.2-0.35-1.65c0.08-1.91-0.28-5.27,0.08-4.97
					l-0.01,0.68c0.35-1.44,0.25-5.36,0.25-8.42l-0.46-0.5c0.66-8-0.27-20.97,0.31-25.34c-0.11-1.93-0.12-4.32-0.23-6.24l0.24,0.1
					c0.05-5.35,0.07-8.02,0-14.64l0.17,1.35c0.01-3.73-0.67-4.71-0.69-8.15l0.33-1.04c-0.02-6.51,0.25-13.1-0.05-19.53
					c0.05,0.11,0.14,0.3,0.16,1.35c0-3.06,0.18-11.85-0.25-10.74c0.28-0.08,0.01-6.72-0.11-10.23l0.2,0.55
					c-0.26-2.97-0.33-3.06-0.41-7.2c0.02-0.98,0.16-0.86,0.11,0.44c0.1-3.27-0.19-2.55-0.09-6.52l0.13,1.48
					c0.01-3.37-0.06-3.1-0.2-4.95c-0.08-2.12,0.04-6.39,0.21-6.88c-0.1-0.45-0.24-2.3-0.2-4.28c0.06-0.27,0.1,0.45,0.12,0.82
					c0.11-5.63-0.22-8.37-0.05-12.24c0.06-0.08,0.09-0.33,0.1-0.65c0.01,4.47,0,8.07-0.01,7.74c0.17,0,0.19-3.61,0.42-0.74
					c-0.14-2.9-0.42-7.86-0.35-11.38c0.02-0.17,0.03-0.34,0.05-0.47l0.02,0.36c0.01-0.81,0-1.54-0.03-2.23
					c0.02-1.12,0.04-1.84,0.04-2.92c0.13-0.42,0.06-4.14,0.06-5.94c-0.17,0.15-0.15-2.21-0.28,0c0.01-0.29,0.02,0.34,0.03,1.54
					c0.01,0.27,0.01,0.59,0.02,0.77c0-0.03-0.01-0.08-0.02-0.12c0.01,1.18,0.01,2.72,0.02,4.48c-0.09-1.42-0.16-2.91-0.07-4.9
					c-0.1-0.93-0.21-1.94-0.27-2.51c0.23-2.46,0.34-7.22,0.48-7.88c-0.1-5.5-0.1-12.96-0.38-16.41c-0.04-1.56,0.08-1.8,0.12-2.38
					c0.03,0.9,0.03,1.98,0.07,2.46c-0.08-3.13-0.05-9.26-0.23-10.01c0.08-3.94,0.17,2.21,0.13-3.2l0.06,0.73
					c0.23-10.65-0.46-17.32-0.15-29.13c-0.02,0.82-0.02,1.23-0.05,1.39c0.09-13.46-0.14-27.75-0.02-41.03
					c0.02-3.78-0.04-4.19-0.09-6.49l0.07-0.82l-0.08-3.94c-0.05-5.59,0.11-9.68,0.01-16.75l-0.03,0.91c0-2.54-0.03-8.05,0-7.62
					c0-0.26-0.02-0.83-0.01-1.83l0.01-0.08l-0.04-6.24c0-4.84,0.04,0.76,0.01-6.3c-0.01-2.52-0.03-5.54-0.03-6.49
					c0,1.05,0,2.61,0,2.79l0-2.4c-0.01-0.44,0.01-2.28-0.03,3.61l-0.01,4.11l-0.02,1.32l0.02-3.46c-0.01,1.97-0.01,3.2-0.02,4.59
					c0,0.35-0.01,0.91-0.02,1.72l0.01,4.03c-0.02,0.49-0.02-1.81-0.04,0.9c0.01,1.89,0.04-1.81,0.04,1.32
					c-0.03,1.96-0.04,1.39-0.03,3.7c-0.01,0.32-0.02-0.16-0.02-1.08c0,2.05-0.02,5.43,0.01,6.49c-0.05,2.05-0.02,6.93-0.09,6.73
					c0,0.65,0.03,3.62,0.04,5.5c-0.08-3.44-0.04,7.06-0.15,6.15c0.09,2.55,0,9.21,0.05,13.72c-0.01-0.25-0.03-0.75-0.02-1.15
					c-0.02,2.54-0.06,3.28-0.1,4.91c0.11,0.33,0.12,4.28,0.19,6.42c-0.13,3.11-0.13-1.89-0.25-0.91c0.1-0.16,0.07,5.41,0.16,4.35
					c-0.08,2.38-0.04,2.05-0.16,3.28c0.16,0.42,0.02,2.22,0.11,4.19c-0.1,3.45-0.16,0.89-0.13,4.67
					C789.98,78.39,789.93,75.02,789.93,75.02z M790.03,165.07L790.03,165.07c-0.01-0.78-0.01-1.44-0.01-1.86
					C790.03,163.6,790.03,164.14,790.03,165.07z M790.02,172.64c0-0.92,0.01-2.07,0.01-3.28c0.06-0.27,0.12,0.02,0.12,0.78
					C790.12,169.73,790.08,171.51,790.02,172.64z M791.22,156.64c0.03,1.2,0,1.6-0.04,1.76c-0.01-0.57-0.02-1.23-0.03-2.09
					c-0.01-0.04-0.02-0.11-0.02-0.14C791.17,156.28,791.2,156.41,791.22,156.64z"/>
				<path fill="#A6A6A6" d="M791,154.48c0-0.17-0.01-0.27-0.01-0.49c-0.01,0.25-0.02,0.48-0.04,0.71c0.02,0.15,0.04,0.29,0.05,0.42
					C791,154.91,791,154.68,791,154.48z"/>
				<path fill="#A6A6A6" d="M790.74,840.5l0-0.16c-0.01,0.13-0.02,0.25-0.02,0.34C790.73,840.57,790.73,840.57,790.74,840.5z"/>
				<polygon fill="#A6A6A6" points="789.42,277.14 789.48,277.13 789.43,276.47 				"/>
				<path fill="#A6A6A6" d="M790.26,882.18c-0.01,0.08-0.02,0.24-0.03,0.55C790.24,882.71,790.25,882.47,790.26,882.18z"/>
				<path fill="#A6A6A6" d="M790.27,900.19l-0.03,2.55C790.25,901.63,790.26,900.83,790.27,900.19z"/>
				<path fill="#A6A6A6" d="M790.25,914.03c0.02,0.18,0.03,0.23,0.04,0.27c0-0.01,0-0.02,0-0.03L790.25,914.03z"/>
				<path fill="#A6A6A6" d="M789.57,693.93c0-0.19-0.01-0.37-0.01-0.53C789.51,692.14,789.53,692.99,789.57,693.93z"/>
				<path fill="#A6A6A6" d="M790.18,759.43c-0.03-0.7-0.07-1.38-0.1-2.11C790.06,758.49,790.06,759.39,790.18,759.43z"/>
				<path fill="#A6A6A6" d="M789.16,620.79C789.16,620.79,789.16,620.79,789.16,620.79c0-0.15,0-0.29,0-0.44L789.16,620.79z"/>
				<path fill="#A6A6A6" d="M790.08,754.28c-0.04,1.17-0.03,2.14,0,3.05C790.09,756.37,790.11,755.24,790.08,754.28z"/>
				<path fill="#A6A6A6" d="M790.42,974.03l0,0.67c0-0.01,0,0.03,0,0.08L790.42,974.03z"/>
				<path fill="#A6A6A6" d="M790.43,974.77l0.01,0.74C790.43,975.18,790.43,974.88,790.43,974.77z"/>
				<path fill="#A6A6A6" d="M790.45,977.07l-0.01-1.56C790.44,976.05,790.44,976.71,790.45,977.07z"/>
				<path fill="#A6A6A6" d="M790.37,955.7l-0.02-0.21C790.36,955.61,790.37,955.68,790.37,955.7z"/>
				<path fill="#A6A6A6" d="M790.35,950.13c0,1.33-0.01,3.33-0.01,5.19l0.01,0.17C790.33,954.62,790.39,951.4,790.35,950.13z"/>
				<path fill="#A6A6A6" d="M790.64,926.89l-0.03,4.67c0.03-0.82,0.07-1.89,0.07,0.23C790.79,925.91,790.61,933,790.64,926.89z"/>
				<path fill="#A6A6A6" d="M790.72,912.42c0.01,2.51,0.05-0.03,0.07,0.1C790.76,910.93,790.75,910.55,790.72,912.42z"/>
				<path fill="#A6A6A6" d="M790.92,807.85l0.17,0.25C791.06,806.17,791.02,808.09,790.92,807.85z"/>
				<polygon fill="#A6A6A6" points="790.03,787.87 789.92,789.75 790.08,790.64 				"/>
				<polygon fill="#A6A6A6" points="791.32,776.06 791.35,776.9 791.29,773.68 				"/>
				<path fill="#A6A6A6" d="M791.51,600.44l-0.3,0.58C791.26,602.33,791.6,602.6,791.51,600.44z"/>
				<path fill="#A6A6A6" d="M791.23,524.62c0.16-0.83,0.26-2.96,0.1-4.27C791.31,522.06,791.19,523.76,791.23,524.62z"/>
				<polygon fill="#A6A6A6" points="791.59,297.25 791.68,298.77 791.6,295.9 				"/>
			</g>
		</g>
	</g>
</g>
</svg>
